<?xml version="1.0" encoding="UTF-8" standalone="no"?>
<!-- Created with Inkscape (http://www.inkscape.org/) -->

<svg
   version="1.1"
   id="svg1"
   width="378.94748"
   height="359.21066"
   viewBox="0 0 378.94748 359.21066"
   xmlns="http://www.w3.org/2000/svg"
   xmlns:svg="http://www.w3.org/2000/svg">
  <defs
     id="defs1" />
  <g
     id="g1">
    <path
       id="path1"
       d="m 393.992,312.387 h -56.168 v -14.52 h 18.625 V 184.664 h -18.625 v -14.519 h 56.168 v 14.519 h -18.625 v 113.203 h 18.625 z m 149.883,0 h -24.551 l -47.57,-56.551 h -26.652 v 56.551 H 426.188 V 170.145 h 39.835 c 8.594,0 15.762,0.574 21.493,1.718 5.73,1.086 10.89,3.059 15.476,5.926 5.156,3.246 9.168,7.356 12.035,12.32 2.93,4.907 4.395,11.149 4.395,18.727 0,10.25 -2.578,18.848 -7.738,25.793 -5.161,6.875 -12.258,12.066 -21.301,15.57 z M 499.648,210.172 c 0,-4.074 -0.734,-7.676 -2.199,-10.793 -1.398,-3.188 -3.758,-5.859 -7.066,-8.027 -2.738,-1.844 -5.988,-3.122 -9.746,-3.821 -3.758,-0.765 -8.184,-1.144 -13.278,-1.144 h -22.257 v 53.683 h 19.105 c 5.984,0 11.207,-0.508 15.668,-1.527 4.457,-1.082 8.246,-3.055 11.367,-5.922 2.863,-2.676 4.965,-5.73 6.305,-9.172 1.398,-3.5 2.101,-7.929 2.101,-13.277 z m 145.68,50.726 h -78.621 c 0,6.559 0.988,12.29 2.961,17.196 1.977,4.84 4.684,8.82 8.121,11.941 3.313,3.055 7.227,5.348 11.75,6.875 4.586,1.531 9.617,2.293 15.094,2.293 7.262,0 14.551,-1.433 21.875,-4.297 7.387,-2.929 12.64,-5.797 15.762,-8.597 h 0.957 v 19.582 c -6.051,2.547 -12.227,4.679 -18.532,6.402 -6.308,1.719 -12.929,2.578 -19.871,2.578 -17.707,0 -31.523,-4.777 -41.461,-14.328 -9.933,-9.617 -14.902,-23.246 -14.902,-40.887 0,-17.449 4.746,-31.301 14.234,-41.554 9.555,-10.254 22.098,-15.383 37.637,-15.383 14.395,0 25.477,4.207 33.246,12.613 7.832,8.406 11.75,20.348 11.75,35.82 z m -17.48,-13.757 c -0.067,-9.426 -2.453,-16.719 -7.168,-21.875 -4.649,-5.161 -11.75,-7.739 -21.301,-7.739 -9.617,0 -17.289,2.836 -23.024,8.504 -5.667,5.668 -8.882,12.703 -9.648,21.11 z m 155.996,54.929 c -3.504,1.528 -6.688,2.961 -9.555,4.297 -2.801,1.34 -6.496,2.738 -11.078,4.203 -3.887,1.211 -8.121,2.231 -12.707,3.059 -4.524,0.891 -9.52,1.336 -14.996,1.336 -10.32,0 -19.711,-1.434 -28.184,-4.297 -8.406,-2.93 -15.73,-7.484 -21.969,-13.66 -6.117,-6.051 -10.89,-13.727 -14.332,-23.024 -3.437,-9.363 -5.156,-20.218 -5.156,-32.574 0,-11.719 1.656,-22.195 4.965,-31.43 3.313,-9.234 8.09,-17.035 14.332,-23.402 6.047,-6.18 13.34,-10.89 21.875,-14.14 8.598,-3.247 18.117,-4.872 28.563,-4.872 7.64,0 15.253,0.922 22.832,2.77 7.64,1.848 16.113,5.094 25.41,9.746 v 22.449 h -1.434 c -7.832,-6.562 -15.601,-11.336 -23.308,-14.332 -7.707,-2.992 -15.954,-4.488 -24.743,-4.488 -7.195,0 -13.691,1.18 -19.488,3.535 -5.73,2.293 -10.859,5.891 -15.379,10.793 -4.394,4.777 -7.832,10.828 -10.316,18.152 -2.422,7.258 -3.633,15.664 -3.633,25.219 0,9.996 1.34,18.594 4.016,25.793 2.738,7.195 6.238,13.055 10.507,17.574 4.457,4.715 9.649,8.219 15.571,10.512 5.984,2.227 12.289,3.34 18.914,3.34 9.105,0 17.64,-1.559 25.601,-4.68 7.961,-3.121 15.41,-7.801 22.352,-14.043 h 1.34 z"
       style="fill:#000000;fill-opacity:1;fill-rule:nonzero;stroke:none"
       transform="matrix(1.3333333,0,0,1.3333333,-55.2632,-69.473333)" />
    <path
       id="path2"
       d="m 230.887,312.047 c -0.278,-1.5 -0.559,-2.996 -0.836,-4.434 -0.367,-1.902 -0.731,-3.75 -1.098,-5.551 -0.367,-1.8 -0.738,-3.546 -1.109,-5.25 -0.371,-1.699 -0.746,-3.355 -1.125,-4.96 -0.379,-1.606 -0.766,-3.168 -1.157,-4.684 -0.39,-1.516 -0.785,-2.988 -1.191,-4.414 -0.406,-1.43 -0.82,-2.816 -1.246,-4.16 -0.422,-1.344 -0.855,-2.649 -1.301,-3.91 -0.445,-1.266 -0.902,-2.489 -1.371,-3.676 -0.473,-1.184 -0.957,-2.332 -1.453,-3.446 -0.5,-1.113 -1.016,-2.191 -1.547,-3.234 -0.531,-1.039 -1.078,-2.051 -1.644,-3.023 -0.567,-0.977 -1.153,-1.922 -1.758,-2.832 -0.606,-0.914 -1.231,-1.793 -1.879,-2.649 -0.649,-0.851 -1.317,-1.676 -2.012,-2.469 -0.695,-0.796 -1.414,-1.566 -2.156,-2.312 -0.742,-0.742 -1.512,-1.461 -2.309,-2.156 -0.797,-0.692 -1.621,-1.364 -2.472,-2.012 -0.852,-0.648 -1.735,-1.273 -2.649,-1.879 -0.91,-0.605 -1.851,-1.187 -2.828,-1.758 -0.976,-0.566 -1.984,-1.113 -3.027,-1.644 -0.621,-0.317 -1.281,-0.617 -1.93,-0.922 v 71.414 h 35.918 c 0.766,0 1.434,-0.035 2.18,-0.039 z"
       style="fill:#000000;fill-opacity:1;fill-rule:nonzero;stroke:none"
       transform="matrix(1.3333333,0,0,1.3333333,-55.2632,-69.473333)" />
    <path
       id="path3"
       d="m 312.145,228.758 c -0.418,0.078 -0.86,0.16 -1.27,0.238 -1.902,0.367 -3.75,0.731 -5.551,1.102 -1.797,0.367 -3.547,0.734 -5.25,1.105 -1.699,0.371 -3.355,0.746 -4.961,1.129 -1.609,0.379 -3.168,0.762 -4.683,1.152 -1.516,0.391 -2.989,0.789 -4.418,1.196 -1.426,0.402 -2.813,0.816 -4.157,1.242 -1.343,0.422 -2.648,0.855 -3.91,1.301 -1.261,0.445 -2.488,0.902 -3.675,1.375 -1.184,0.468 -2.332,0.953 -3.446,1.453 -1.113,0.496 -2.191,1.011 -3.234,1.543 -1.039,0.531 -2.047,1.078 -3.024,1.644 -0.976,0.571 -1.921,1.153 -2.832,1.758 -0.914,0.606 -1.793,1.231 -2.648,1.879 -0.852,0.648 -1.676,1.32 -2.473,2.012 -0.797,0.695 -1.562,1.414 -2.308,2.156 -0.743,0.746 -1.461,1.516 -2.153,2.312 -0.695,0.793 -1.367,1.618 -2.015,2.469 -0.645,0.856 -1.274,1.735 -1.879,2.649 -0.606,0.91 -1.192,1.855 -1.758,2.832 -0.566,0.972 -1.113,1.984 -1.645,3.023 -0.531,1.043 -1.043,2.121 -1.543,3.234 -0.5,1.114 -0.984,2.262 -1.453,3.446 -0.472,1.187 -0.929,2.41 -1.375,3.676 -0.445,1.261 -0.879,2.566 -1.3,3.91 -0.426,1.344 -0.836,2.73 -1.243,4.16 -0.406,1.43 -0.804,2.898 -1.195,4.414 -0.391,1.516 -0.773,3.078 -1.152,4.684 -0.383,1.605 -0.758,3.261 -1.129,4.96 -0.371,1.704 -0.738,3.45 -1.106,5.25 -0.367,1.801 -0.734,3.649 -1.101,5.551 -0.278,1.434 -0.555,2.93 -0.832,4.422 11.758,-0.117 21.426,-0.973 28.804,-2.625 8.028,-1.781 15.286,-4.683 21.782,-8.695 9.363,-5.793 16.847,-13.945 22.449,-24.453 5.668,-10.508 8.504,-22.227 8.504,-35.157 0,-4.304 -0.297,-8.406 -0.82,-12.347 z"
       style="fill:#000000;fill-opacity:1;fill-rule:nonzero;stroke:none"
       transform="matrix(1.3333333,0,0,1.3333333,-55.2632,-69.473333)" />
    <path
       id="path4"
       d="m 237.125,170.016 c 0.27,1.015 0.539,2.043 0.816,3.019 0.403,1.426 0.817,2.813 1.243,4.156 0.421,1.344 0.855,2.649 1.3,3.911 0.446,1.261 0.903,2.488 1.375,3.675 0.469,1.184 0.953,2.332 1.453,3.446 0.5,1.113 1.012,2.191 1.543,3.234 0.532,1.039 1.079,2.051 1.645,3.027 0.566,0.973 1.152,1.918 1.758,2.832 0.605,0.911 1.23,1.793 1.879,2.645 0.648,0.851 1.32,1.676 2.015,2.473 0.692,0.796 1.41,1.566 2.153,2.308 0.746,0.742 1.511,1.461 2.308,2.156 0.797,0.692 1.621,1.364 2.473,2.012 0.855,0.649 1.734,1.274 2.648,1.879 0.911,0.606 1.856,1.191 2.832,1.758 0.977,0.566 1.985,1.113 3.024,1.644 1.043,0.532 2.121,1.047 3.234,1.547 1.114,0.496 2.262,0.981 3.446,1.453 1.187,0.469 2.414,0.926 3.675,1.371 1.262,0.446 2.567,0.879 3.91,1.305 1.344,0.422 2.731,0.836 4.157,1.242 1.429,0.403 2.902,0.801 4.418,1.192 1.515,0.39 3.074,0.777 4.683,1.156 1.606,0.379 3.262,0.754 4.961,1.125 1.703,0.371 3.453,0.742 5.25,1.109 1.801,0.368 3.649,0.731 5.551,1.098 0.332,0.066 0.695,0.133 1.031,0.195 -1.242,-8.004 -3.59,-15.242 -7.062,-21.699 -5.414,-10.062 -12.961,-18.117 -22.641,-24.168 -5.668,-3.504 -12.609,-6.242 -20.824,-8.219 -6.336,-1.582 -14.457,-2.531 -24.254,-2.882 z"
       style="fill:#000000;fill-opacity:1;fill-rule:nonzero;stroke:none"
       transform="matrix(1.3333333,0,0,1.3333333,-55.2632,-69.473333)" />
    <path
       id="path5"
       d="m 192.789,215.113 c 0.649,-0.304 1.309,-0.605 1.93,-0.922 1.043,-0.531 2.051,-1.078 3.027,-1.644 0.973,-0.567 1.918,-1.152 2.828,-1.758 0.914,-0.605 1.797,-1.23 2.649,-1.879 0.851,-0.648 1.675,-1.32 2.472,-2.012 0.797,-0.695 1.567,-1.414 2.309,-2.156 0.742,-0.742 1.461,-1.512 2.156,-2.308 0.692,-0.797 1.363,-1.622 2.012,-2.473 0.648,-0.852 1.273,-1.734 1.879,-2.645 0.605,-0.914 1.191,-1.859 1.758,-2.832 0.566,-0.976 1.113,-1.988 1.644,-3.027 0.531,-1.043 1.047,-2.121 1.547,-3.234 0.496,-1.114 0.98,-2.262 1.453,-3.446 0.469,-1.187 0.926,-2.414 1.371,-3.675 0.446,-1.262 0.879,-2.567 1.301,-3.911 0.426,-1.343 0.84,-2.73 1.246,-4.156 0.293,-1.035 0.574,-2.113 0.859,-3.191 h -32.441 z"
       style="fill:#000000;fill-opacity:1;fill-rule:nonzero;stroke:none"
       transform="matrix(1.3333333,0,0,1.3333333,-55.2632,-69.473333)" />
    <path
       id="path6"
       d="m 104.012,109.277 c -0.215,1.172 -0.43,2.313 -0.645,3.422 -0.215,1.11 -0.426,2.188 -0.64,3.239 -0.215,1.05 -0.43,2.074 -0.649,3.066 -0.215,0.992 -0.433,1.957 -0.656,2.898 -0.223,0.938 -0.445,1.848 -0.676,2.735 -0.226,0.883 -0.461,1.742 -0.695,2.578 -0.239,0.832 -0.481,1.64 -0.727,2.426 -0.246,0.785 -0.5,1.547 -0.762,2.285 -0.257,0.734 -0.527,1.449 -0.8,2.144 -0.274,0.692 -0.559,1.364 -0.848,2.012 -0.293,0.648 -0.594,1.277 -0.902,1.887 -0.309,0.609 -0.629,1.199 -0.961,1.769 -0.332,0.571 -0.672,1.117 -1.028,1.653 -0.351,0.531 -0.718,1.047 -1.097,1.547 -0.375,0.496 -0.77,0.976 -1.172,1.441 -0.406,0.465 -0.824,0.914 -1.262,1.348 -0.433,0.433 -0.883,0.855 -1.347,1.257 -0.465,0.407 -0.946,0.797 -1.442,1.176 -0.5,0.379 -1.012,0.746 -1.547,1.098 -0.531,0.355 -1.082,0.695 -1.652,1.027 -0.57,0.332 -1.16,0.649 -1.766,0.961 -0.609,0.309 -1.238,0.609 -1.89,0.902 -0.649,0.29 -1.321,0.575 -2.012,0.848 -0.691,0.274 -1.406,0.543 -2.145,0.801 -0.738,0.262 -1.5,0.512 -2.285,0.762 -0.785,0.246 -1.594,0.488 -2.426,0.726 -0.835,0.235 -1.695,0.469 -2.578,0.695 -0.886,0.227 -1.797,0.454 -2.734,0.676 -0.938,0.219 -1.906,0.438 -2.898,0.656 -0.993,0.215 -2.016,0.434 -3.067,0.645 -1.051,0.215 -2.129,0.43 -3.238,0.645 -1.11,0.214 -2.25,0.429 -3.422,0.644 1.172,0.215 2.312,0.43 3.422,0.645 1.109,0.211 2.187,0.425 3.238,0.64 1.051,0.215 2.074,0.43 3.067,0.649 0.992,0.215 1.96,0.433 2.898,0.656 0.937,0.223 1.848,0.445 2.734,0.676 0.883,0.226 1.743,0.457 2.578,0.695 0.832,0.238 1.641,0.477 2.426,0.727 0.785,0.246 1.547,0.5 2.285,0.761 0.739,0.258 1.454,0.524 2.145,0.801 0.691,0.274 1.363,0.555 2.012,0.848 0.652,0.293 1.281,0.59 1.89,0.902 0.606,0.309 1.196,0.629 1.766,0.961 0.57,0.328 1.121,0.672 1.652,1.023 0.535,0.356 1.047,0.723 1.547,1.098 0.496,0.379 0.977,0.77 1.442,1.176 0.464,0.406 0.914,0.824 1.347,1.258 0.438,0.433 0.856,0.883 1.262,1.347 0.402,0.469 0.797,0.95 1.172,1.446 0.379,0.5 0.746,1.011 1.097,1.547 0.356,0.531 0.696,1.082 1.028,1.652 0.332,0.57 0.652,1.156 0.961,1.766 0.308,0.609 0.609,1.238 0.902,1.886 0.293,0.653 0.574,1.321 0.848,2.016 0.273,0.691 0.543,1.406 0.8,2.144 0.262,0.739 0.516,1.5 0.762,2.282 0.246,0.785 0.488,1.593 0.727,2.429 0.234,0.832 0.469,1.692 0.695,2.578 0.231,0.887 0.453,1.797 0.676,2.735 0.223,0.937 0.441,1.902 0.656,2.898 0.219,0.992 0.434,2.016 0.649,3.067 0.214,1.05 0.425,2.129 0.64,3.238 0.215,1.109 0.43,2.25 0.645,3.422 0.215,-1.172 0.429,-2.313 0.644,-3.422 0.215,-1.109 0.426,-2.191 0.641,-3.238 0.215,-1.051 0.43,-2.075 0.648,-3.067 0.219,-0.996 0.438,-1.961 0.657,-2.898 0.222,-0.938 0.445,-1.848 0.675,-2.735 0.227,-0.886 0.461,-1.742 0.696,-2.578 0.238,-0.832 0.48,-1.644 0.726,-2.429 0.246,-0.782 0.5,-1.543 0.762,-2.282 0.258,-0.738 0.527,-1.453 0.801,-2.144 0.273,-0.695 0.558,-1.363 0.847,-2.016 0.293,-0.648 0.594,-1.277 0.903,-1.886 0.308,-0.61 0.629,-1.196 0.961,-1.766 0.332,-0.57 0.672,-1.121 1.027,-1.652 0.352,-0.536 0.719,-1.047 1.098,-1.547 0.379,-0.496 0.769,-0.977 1.172,-1.446 0.406,-0.464 0.828,-0.914 1.261,-1.347 0.434,-0.434 0.883,-0.852 1.348,-1.258 0.465,-0.406 0.945,-0.797 1.441,-1.176 0.5,-0.375 1.016,-0.742 1.547,-1.098 0.531,-0.351 1.082,-0.695 1.653,-1.023 0.57,-0.332 1.16,-0.652 1.769,-0.961 0.606,-0.312 1.234,-0.613 1.887,-0.902 0.648,-0.293 1.32,-0.574 2.012,-0.848 0.691,-0.277 1.406,-0.543 2.144,-0.801 0.738,-0.261 1.5,-0.515 2.285,-0.761 0.785,-0.25 1.594,-0.489 2.426,-0.727 0.836,-0.238 1.695,-0.469 2.578,-0.695 0.887,-0.231 1.797,-0.453 2.734,-0.676 0.938,-0.223 1.907,-0.441 2.899,-0.656 0.992,-0.219 2.016,-0.434 3.066,-0.649 1.051,-0.215 2.129,-0.429 3.239,-0.64 1.109,-0.215 2.25,-0.43 3.421,-0.645 -1.171,-0.215 -2.312,-0.43 -3.421,-0.644 -1.11,-0.215 -2.188,-0.43 -3.239,-0.645 -1.05,-0.211 -2.074,-0.43 -3.066,-0.645 -0.992,-0.218 -1.961,-0.437 -2.899,-0.656 -0.937,-0.222 -1.847,-0.449 -2.734,-0.676 -0.883,-0.226 -1.742,-0.46 -2.578,-0.695 -0.832,-0.238 -1.641,-0.48 -2.426,-0.726 -0.785,-0.25 -1.547,-0.5 -2.285,-0.762 -0.738,-0.258 -1.453,-0.527 -2.144,-0.801 -0.692,-0.273 -1.364,-0.558 -2.012,-0.848 -0.653,-0.293 -1.281,-0.593 -1.887,-0.902 -0.609,-0.312 -1.199,-0.629 -1.769,-0.961 -0.571,-0.332 -1.122,-0.672 -1.653,-1.027 -0.531,-0.352 -1.047,-0.719 -1.547,-1.098 -0.496,-0.379 -0.976,-0.769 -1.441,-1.176 -0.465,-0.402 -0.914,-0.824 -1.348,-1.257 -0.433,-0.434 -0.855,-0.883 -1.261,-1.348 -0.403,-0.465 -0.793,-0.945 -1.172,-1.441 -0.379,-0.5 -0.746,-1.016 -1.098,-1.547 -0.355,-0.532 -0.695,-1.082 -1.027,-1.653 -0.332,-0.57 -0.653,-1.16 -0.961,-1.769 -0.309,-0.61 -0.61,-1.239 -0.903,-1.887 -0.289,-0.648 -0.574,-1.32 -0.847,-2.012 -0.274,-0.695 -0.543,-1.41 -0.801,-2.144 -0.262,-0.738 -0.516,-1.5 -0.762,-2.285 -0.246,-0.786 -0.488,-1.594 -0.726,-2.426 -0.235,-0.836 -0.469,-1.695 -0.696,-2.578 -0.23,-0.887 -0.453,-1.797 -0.675,-2.735 -0.219,-0.941 -0.438,-1.906 -0.657,-2.898 -0.218,-0.992 -0.433,-2.016 -0.648,-3.066 -0.215,-1.051 -0.426,-2.129 -0.641,-3.239 -0.215,-1.113 -0.429,-2.25 -0.644,-3.422 z"
       style="fill:#000000;fill-opacity:1;fill-rule:nonzero;stroke:none"
       transform="matrix(1.3333333,0,0,1.3333333,-55.2632,-69.473333)" />
    <path
       id="path7"
       d="m 181.66,55.227 c -0.121,0.656 -0.242,1.296 -0.363,1.921 -0.121,0.622 -0.242,1.227 -0.359,1.821 -0.122,0.59 -0.243,1.164 -0.364,1.719 -0.125,0.558 -0.246,1.101 -0.371,1.628 -0.125,0.528 -0.25,1.039 -0.379,1.536 -0.129,0.5 -0.258,0.98 -0.39,1.449 -0.133,0.469 -0.27,0.922 -0.411,1.363 -0.136,0.441 -0.281,0.867 -0.425,1.285 -0.145,0.414 -0.297,0.813 -0.45,1.203 -0.156,0.391 -0.312,0.766 -0.476,1.133 -0.164,0.363 -0.332,0.715 -0.508,1.059 -0.172,0.34 -0.352,0.672 -0.539,0.992 -0.187,0.32 -0.379,0.629 -0.578,0.93 -0.195,0.296 -0.402,0.586 -0.613,0.867 -0.215,0.281 -0.434,0.551 -0.661,0.812 -0.23,0.262 -0.464,0.512 -0.707,0.758 -0.246,0.242 -0.496,0.477 -0.757,0.707 -0.262,0.227 -0.532,0.445 -0.813,0.66 -0.277,0.211 -0.57,0.414 -0.867,0.614 -0.301,0.199 -0.609,0.39 -0.93,0.578 -0.32,0.183 -0.648,0.367 -0.992,0.539 -0.344,0.176 -0.695,0.344 -1.059,0.508 -0.367,0.164 -0.742,0.32 -1.132,0.476 -0.391,0.153 -0.789,0.305 -1.204,0.449 -0.417,0.145 -0.843,0.289 -1.285,0.426 -0.441,0.141 -0.894,0.278 -1.363,0.41 -0.469,0.133 -0.949,0.262 -1.449,0.391 -0.496,0.129 -1.008,0.254 -1.535,0.379 -0.528,0.125 -1.071,0.246 -1.629,0.371 -0.555,0.121 -1.129,0.242 -1.719,0.363 -0.594,0.117 -1.199,0.238 -1.82,0.36 -0.625,0.121 -1.266,0.242 -1.922,0.363 0.656,0.121 1.297,0.238 1.922,0.359 0.621,0.121 1.226,0.242 1.82,0.364 0.59,0.117 1.164,0.238 1.719,0.363 0.558,0.121 1.101,0.242 1.629,0.367 0.527,0.125 1.039,0.25 1.535,0.379 0.5,0.129 0.98,0.258 1.449,0.391 0.469,0.132 0.922,0.269 1.363,0.41 0.442,0.136 0.868,0.281 1.285,0.425 0.415,0.145 0.813,0.297 1.204,0.45 0.39,0.156 0.765,0.312 1.132,0.476 0.364,0.164 0.715,0.332 1.059,0.508 0.344,0.176 0.672,0.356 0.992,0.539 0.321,0.188 0.629,0.379 0.93,0.578 0.297,0.199 0.59,0.403 0.867,0.617 0.281,0.211 0.551,0.43 0.813,0.661 0.261,0.226 0.511,0.461 0.757,0.707 0.243,0.242 0.477,0.496 0.707,0.754 0.227,0.261 0.446,0.531 0.661,0.812 0.211,0.281 0.418,0.57 0.613,0.867 0.199,0.301 0.391,0.61 0.578,0.93 0.187,0.32 0.367,0.652 0.539,0.992 0.176,0.344 0.344,0.695 0.508,1.063 0.164,0.363 0.32,0.738 0.476,1.129 0.153,0.39 0.305,0.789 0.45,1.207 0.144,0.414 0.289,0.839 0.425,1.281 0.141,0.441 0.278,0.894 0.411,1.363 0.132,0.469 0.261,0.953 0.39,1.449 0.129,0.496 0.254,1.008 0.379,1.535 0.125,0.528 0.246,1.071 0.371,1.629 0.121,0.559 0.242,1.133 0.364,1.723 0.117,0.59 0.238,1.195 0.359,1.82 0.121,0.621 0.242,1.262 0.363,1.922 0.121,-0.66 0.238,-1.301 0.36,-1.922 0.121,-0.625 0.242,-1.23 0.363,-1.82 0.117,-0.59 0.238,-1.164 0.363,-1.723 0.121,-0.558 0.242,-1.101 0.367,-1.629 0.125,-0.527 0.25,-1.039 0.379,-1.535 0.129,-0.496 0.258,-0.98 0.391,-1.449 0.133,-0.469 0.269,-0.922 0.41,-1.363 0.137,-0.442 0.281,-0.867 0.426,-1.281 0.144,-0.418 0.297,-0.817 0.449,-1.207 0.156,-0.391 0.316,-0.766 0.477,-1.129 0.164,-0.368 0.332,-0.719 0.507,-1.063 0.176,-0.34 0.356,-0.672 0.539,-0.992 0.188,-0.32 0.379,-0.629 0.579,-0.93 0.199,-0.297 0.402,-0.586 0.617,-0.867 0.211,-0.281 0.429,-0.551 0.66,-0.812 0.226,-0.258 0.461,-0.512 0.707,-0.754 0.242,-0.246 0.496,-0.481 0.754,-0.707 0.262,-0.231 0.531,-0.45 0.812,-0.661 0.282,-0.214 0.571,-0.418 0.868,-0.617 0.3,-0.199 0.609,-0.39 0.929,-0.578 0.321,-0.183 0.653,-0.363 0.992,-0.539 0.344,-0.176 0.696,-0.344 1.063,-0.508 0.363,-0.164 0.738,-0.32 1.129,-0.476 0.39,-0.153 0.793,-0.305 1.207,-0.45 0.414,-0.144 0.84,-0.289 1.281,-0.425 0.441,-0.141 0.895,-0.278 1.363,-0.41 0.469,-0.133 0.953,-0.262 1.45,-0.391 0.496,-0.129 1.007,-0.254 1.535,-0.379 0.527,-0.125 1.07,-0.246 1.629,-0.367 0.558,-0.125 1.132,-0.246 1.722,-0.363 0.59,-0.122 1.196,-0.243 1.821,-0.364 0.621,-0.121 1.261,-0.238 1.921,-0.359 -0.66,-0.121 -1.3,-0.242 -1.921,-0.363 -0.625,-0.122 -1.231,-0.243 -1.821,-0.36 -0.59,-0.121 -1.164,-0.242 -1.722,-0.363 -0.559,-0.125 -1.102,-0.246 -1.629,-0.371 -0.528,-0.125 -1.039,-0.25 -1.535,-0.379 -0.497,-0.129 -0.981,-0.258 -1.45,-0.391 -0.468,-0.132 -0.922,-0.269 -1.363,-0.41 -0.441,-0.137 -0.867,-0.281 -1.281,-0.426 -0.414,-0.144 -0.817,-0.296 -1.207,-0.449 -0.391,-0.156 -0.766,-0.312 -1.129,-0.476 -0.367,-0.164 -0.719,-0.332 -1.063,-0.508 -0.339,-0.172 -0.671,-0.352 -0.992,-0.539 -0.32,-0.188 -0.629,-0.379 -0.929,-0.578 -0.297,-0.2 -0.586,-0.403 -0.868,-0.614 -0.281,-0.215 -0.55,-0.433 -0.812,-0.66 -0.258,-0.23 -0.512,-0.465 -0.754,-0.707 -0.246,-0.246 -0.481,-0.496 -0.707,-0.758 -0.231,-0.261 -0.449,-0.531 -0.66,-0.812 -0.215,-0.281 -0.418,-0.571 -0.617,-0.867 -0.2,-0.301 -0.391,-0.61 -0.579,-0.93 -0.183,-0.32 -0.363,-0.652 -0.539,-0.992 -0.175,-0.344 -0.343,-0.696 -0.507,-1.059 -0.165,-0.367 -0.321,-0.742 -0.477,-1.133 -0.152,-0.39 -0.305,-0.789 -0.449,-1.203 -0.145,-0.418 -0.289,-0.844 -0.426,-1.285 -0.141,-0.441 -0.277,-0.894 -0.41,-1.363 -0.133,-0.469 -0.262,-0.949 -0.391,-1.449 -0.129,-0.497 -0.254,-1.008 -0.379,-1.536 -0.125,-0.527 -0.246,-1.07 -0.367,-1.628 -0.125,-0.555 -0.246,-1.129 -0.363,-1.719 -0.121,-0.594 -0.242,-1.199 -0.363,-1.821 -0.122,-0.625 -0.239,-1.265 -0.36,-1.921 z"
       style="fill:#000000;fill-opacity:1;fill-rule:nonzero;stroke:none"
       transform="matrix(1.3333333,0,0,1.3333333,-55.2632,-69.473333)" />
  </g>
</svg>
