<?xml version="1.0" encoding="UTF-8" standalone="no"?>
<!-- Created with Inkscape (http://www.inkscape.org/) -->

<svg
   version="1.1"
   id="svg1"
   width="2128.1401"
   height="596.5611"
   viewBox="0 0 2128.1401 596.5611"
   xmlns="http://www.w3.org/2000/svg"
   xmlns:svg="http://www.w3.org/2000/svg">
  <defs
     id="defs1" />
  <g
     id="g1">
    <path
       id="path1"
       d="m 392.168,317.734 h -56.172 v -14.519 h 18.629 V 190.012 h -18.629 v -14.52 h 56.172 v 14.52 h -18.629 v 113.203 h 18.629 z m 149.883,0 H 517.5 l -47.574,-56.55 h -26.653 v 56.55 H 424.359 V 175.492 h 39.836 c 8.598,0 15.762,0.574 21.493,1.719 5.734,1.086 10.89,3.059 15.476,5.926 5.16,3.246 9.172,7.355 12.035,12.32 2.93,4.906 4.395,11.145 4.395,18.727 0,10.25 -2.578,18.847 -7.735,25.789 -5.16,6.879 -12.261,12.07 -21.304,15.574 z M 497.82,215.52 c 0,-4.075 -0.73,-7.676 -2.195,-10.793 -1.402,-3.188 -3.758,-5.86 -7.07,-8.028 -2.739,-1.844 -5.985,-3.121 -9.743,-3.82 -3.757,-0.766 -8.183,-1.145 -13.281,-1.145 h -22.258 v 53.684 h 19.106 c 5.988,0 11.211,-0.508 15.668,-1.527 4.457,-1.082 8.246,-3.055 11.367,-5.922 2.867,-2.676 4.969,-5.731 6.305,-9.172 1.402,-3.5 2.101,-7.93 2.101,-13.277 z m 145.68,50.726 h -78.617 c 0,6.559 0.984,12.289 2.961,17.195 1.972,4.84 4.679,8.821 8.121,11.938 3.308,3.059 7.226,5.351 11.75,6.879 4.582,1.531 9.613,2.293 15.09,2.293 7.261,0 14.554,-1.434 21.879,-4.297 7.386,-2.93 12.64,-5.797 15.761,-8.598 h 0.953 v 19.582 c -6.05,2.547 -12.226,4.68 -18.531,6.403 -6.305,1.718 -12.929,2.578 -19.871,2.578 -17.703,0 -31.523,-4.778 -41.457,-14.328 -9.937,-9.618 -14.902,-23.246 -14.902,-40.887 0,-17.449 4.742,-31.301 14.234,-41.555 9.551,-10.254 22.098,-15.383 37.637,-15.383 14.394,0 25.472,4.207 33.242,12.614 7.836,8.406 11.75,20.347 11.75,35.82 z m -17.48,-13.758 c -0.063,-9.426 -2.454,-16.718 -7.165,-21.875 -4.648,-5.16 -11.75,-7.738 -21.304,-7.738 -9.613,0 -17.289,2.836 -23.02,8.504 -5.668,5.668 -8.886,12.703 -9.648,21.109 z m 155.996,54.93 c -3.5,1.527 -6.688,2.961 -9.551,4.297 -2.805,1.34 -6.496,2.738 -11.082,4.203 -3.887,1.211 -8.121,2.23 -12.707,3.059 -4.52,0.89 -9.52,1.335 -14.996,1.335 -10.317,0 -19.711,-1.433 -28.18,-4.296 -8.406,-2.93 -15.73,-7.485 -21.973,-13.661 -6.113,-6.05 -10.89,-13.726 -14.328,-23.023 -3.441,-9.363 -5.16,-20.219 -5.16,-32.574 0,-11.719 1.656,-22.196 4.969,-31.43 3.312,-9.234 8.086,-17.035 14.328,-23.402 6.051,-6.18 13.344,-10.891 21.875,-14.141 8.598,-3.246 18.121,-4.871 28.562,-4.871 7.645,0 15.254,0.922 22.832,2.77 7.645,1.847 16.114,5.093 25.411,9.746 v 22.449 h -1.434 c -7.832,-6.563 -15.602,-11.336 -23.309,-14.332 -7.703,-2.992 -15.953,-4.488 -24.738,-4.488 -7.199,0 -13.695,1.179 -19.488,3.535 -5.735,2.293 -10.859,5.89 -15.383,10.793 -4.394,4.777 -7.832,10.828 -10.316,18.152 -2.418,7.258 -3.629,15.664 -3.629,25.219 0,9.996 1.336,18.594 4.011,25.793 2.739,7.195 6.243,13.054 10.508,17.574 4.457,4.715 9.649,8.219 15.571,10.512 5.988,2.226 12.293,3.34 18.914,3.34 9.109,0 17.64,-1.559 25.601,-4.68 7.961,-3.121 15.414,-7.801 22.356,-14.043 h 1.336 z"
       style="fill:#000000;fill-opacity:1;fill-rule:nonzero;stroke:none"
       transform="scale(1.3333333)" />
    <path
       id="path2"
       d="m 229.062,317.395 c -0.281,-1.5 -0.558,-2.997 -0.835,-4.434 -0.368,-1.902 -0.735,-3.75 -1.102,-5.551 -0.367,-1.801 -0.734,-3.547 -1.109,-5.25 -0.371,-1.699 -0.743,-3.355 -1.125,-4.961 -0.379,-1.609 -0.762,-3.168 -1.157,-4.683 -0.39,-1.516 -0.785,-2.989 -1.191,-4.414 -0.402,-1.43 -0.82,-2.817 -1.242,-4.161 -0.426,-1.343 -0.86,-2.648 -1.305,-3.91 -0.441,-1.265 -0.898,-2.488 -1.371,-3.676 -0.469,-1.183 -0.953,-2.332 -1.453,-3.445 -0.5,-1.113 -1.012,-2.191 -1.543,-3.234 -0.531,-1.043 -1.082,-2.051 -1.649,-3.024 -0.566,-0.976 -1.152,-1.922 -1.757,-2.832 -0.606,-0.914 -1.231,-1.793 -1.879,-2.648 -0.649,-0.852 -1.317,-1.676 -2.012,-2.473 -0.691,-0.793 -1.41,-1.562 -2.156,-2.308 -0.742,-0.743 -1.512,-1.461 -2.309,-2.157 -0.797,-0.691 -1.617,-1.363 -2.472,-2.011 -0.852,-0.649 -1.735,-1.274 -2.645,-1.879 -0.914,-0.606 -1.855,-1.192 -2.832,-1.758 -0.977,-0.566 -1.984,-1.113 -3.027,-1.645 -0.621,-0.316 -1.282,-0.617 -1.926,-0.921 v 71.414 h 35.918 c 0.762,0 1.433,-0.036 2.179,-0.039 z"
       style="fill:#000000;fill-opacity:1;fill-rule:nonzero;stroke:none"
       transform="scale(1.3333333)" />
    <path
       id="path3"
       d="m 310.316,234.105 c -0.414,0.079 -0.855,0.161 -1.269,0.239 -1.902,0.367 -3.75,0.73 -5.547,1.101 -1.801,0.367 -3.551,0.735 -5.25,1.106 -1.703,0.371 -3.355,0.746 -4.965,1.125 -1.605,0.383 -3.168,0.765 -4.683,1.156 -1.516,0.391 -2.985,0.789 -4.414,1.195 -1.43,0.403 -2.813,0.817 -4.157,1.243 -1.343,0.421 -2.648,0.855 -3.914,1.3 -1.262,0.446 -2.484,0.903 -3.672,1.375 -1.187,0.469 -2.336,0.953 -3.449,1.453 -1.113,0.497 -2.187,1.012 -3.23,1.543 -1.043,0.532 -2.051,1.079 -3.028,1.645 -0.972,0.57 -1.918,1.152 -2.832,1.758 -0.91,0.605 -1.793,1.23 -2.644,1.879 -0.856,0.648 -1.676,1.32 -2.473,2.011 -0.797,0.696 -1.566,1.414 -2.309,2.157 -0.746,0.746 -1.46,1.515 -2.156,2.308 -0.691,0.797 -1.363,1.621 -2.012,2.473 -0.648,0.855 -1.273,1.734 -1.878,2.648 -0.606,0.91 -1.192,1.856 -1.758,2.832 -0.567,0.973 -1.114,1.981 -1.645,3.024 -0.531,1.043 -1.047,2.121 -1.547,3.234 -0.496,1.113 -0.98,2.262 -1.453,3.445 -0.469,1.188 -0.926,2.411 -1.371,3.676 -0.445,1.262 -0.879,2.567 -1.305,3.91 -0.421,1.344 -0.835,2.731 -1.242,4.161 -0.406,1.425 -0.801,2.898 -1.191,4.414 -0.391,1.515 -0.777,3.074 -1.156,4.683 -0.379,1.606 -0.754,3.262 -1.125,4.961 -0.371,1.703 -0.743,3.449 -1.11,5.25 -0.367,1.801 -0.734,3.649 -1.097,5.551 -0.278,1.434 -0.559,2.93 -0.836,4.422 11.761,-0.121 21.429,-0.973 28.808,-2.625 8.024,-1.785 15.285,-4.684 21.782,-8.696 9.359,-5.792 16.843,-13.945 22.449,-24.453 5.668,-10.507 8.5,-22.226 8.5,-35.156 0,-4.305 -0.293,-8.406 -0.821,-12.348 z"
       style="fill:#000000;fill-opacity:1;fill-rule:nonzero;stroke:none"
       transform="scale(1.3333333)" />
    <path
       id="path4"
       d="m 235.297,175.363 c 0.273,1.016 0.539,2.039 0.816,3.016 0.407,1.43 0.821,2.816 1.242,4.16 0.426,1.344 0.86,2.649 1.305,3.91 0.445,1.262 0.902,2.489 1.371,3.672 0.473,1.188 0.957,2.336 1.453,3.449 0.5,1.114 1.016,2.192 1.547,3.231 0.531,1.043 1.078,2.054 1.645,3.031 0.566,0.973 1.152,1.918 1.758,2.828 0.605,0.914 1.23,1.797 1.878,2.649 0.649,0.851 1.317,1.675 2.012,2.472 0.696,0.797 1.41,1.567 2.156,2.309 0.743,0.742 1.512,1.461 2.309,2.156 0.797,0.692 1.617,1.363 2.473,2.012 0.851,0.648 1.734,1.273 2.644,1.879 0.914,0.605 1.856,1.191 2.832,1.758 0.977,0.566 1.985,1.113 3.028,1.644 1.043,0.531 2.117,1.047 3.23,1.543 1.113,0.5 2.262,0.984 3.449,1.453 1.188,0.473 2.41,0.93 3.672,1.375 1.266,0.445 2.571,0.879 3.914,1.305 1.344,0.422 2.727,0.836 4.157,1.242 1.429,0.402 2.898,0.801 4.414,1.191 1.515,0.391 3.078,0.778 4.683,1.157 1.61,0.379 3.262,0.754 4.965,1.125 1.699,0.371 3.449,0.742 5.25,1.109 1.797,0.367 3.645,0.731 5.547,1.098 0.336,0.066 0.695,0.133 1.035,0.195 -1.246,-8.004 -3.59,-15.242 -7.062,-21.699 -5.415,-10.063 -12.961,-18.117 -22.641,-24.168 -5.668,-3.504 -12.609,-6.242 -20.824,-8.219 -6.336,-1.582 -14.457,-2.531 -24.258,-2.883 z"
       style="fill:#000000;fill-opacity:1;fill-rule:nonzero;stroke:none"
       transform="scale(1.3333333)" />
    <path
       id="path5"
       d="m 190.965,220.461 c 0.644,-0.305 1.305,-0.606 1.926,-0.922 1.043,-0.531 2.05,-1.078 3.027,-1.644 0.977,-0.567 1.918,-1.153 2.832,-1.758 0.91,-0.606 1.793,-1.231 2.645,-1.879 0.855,-0.649 1.675,-1.32 2.472,-2.012 0.797,-0.695 1.567,-1.414 2.309,-2.156 0.746,-0.742 1.465,-1.512 2.156,-2.309 0.695,-0.797 1.363,-1.621 2.012,-2.472 0.648,-0.852 1.273,-1.735 1.879,-2.649 0.605,-0.91 1.191,-1.855 1.757,-2.828 0.567,-0.977 1.118,-1.988 1.649,-3.031 0.531,-1.039 1.043,-2.117 1.543,-3.231 0.5,-1.113 0.984,-2.261 1.453,-3.449 0.473,-1.183 0.93,-2.41 1.371,-3.672 0.445,-1.261 0.879,-2.566 1.305,-3.91 0.422,-1.344 0.836,-2.73 1.242,-4.16 0.293,-1.031 0.578,-2.109 0.863,-3.188 h -32.441 z"
       style="fill:#000000;fill-opacity:1;fill-rule:nonzero;stroke:none"
       transform="scale(1.3333333)" />
    <path
       id="path6"
       d="m 102.188,114.625 c -0.219,1.172 -0.434,2.313 -0.645,3.422 -0.215,1.109 -0.43,2.187 -0.645,3.238 -0.214,1.051 -0.429,2.074 -0.644,3.067 -0.219,0.992 -0.438,1.957 -0.66,2.894 -0.219,0.942 -0.446,1.852 -0.672,2.738 -0.231,0.883 -0.461,1.743 -0.699,2.578 -0.235,0.833 -0.477,1.641 -0.723,2.426 -0.25,0.785 -0.504,1.547 -0.762,2.285 -0.261,0.735 -0.527,1.45 -0.8,2.145 -0.278,0.691 -0.559,1.363 -0.852,2.012 -0.289,0.648 -0.59,1.277 -0.898,1.886 -0.313,0.61 -0.633,1.2 -0.961,1.77 -0.332,0.566 -0.676,1.117 -1.028,1.652 -0.355,0.532 -0.719,1.047 -1.097,1.547 -0.379,0.496 -0.77,0.977 -1.176,1.442 -0.406,0.464 -0.824,0.914 -1.258,1.347 -0.434,0.434 -0.883,0.856 -1.348,1.258 -0.465,0.406 -0.945,0.797 -1.445,1.176 -0.496,0.379 -1.012,0.746 -1.543,1.097 -0.535,0.356 -1.086,0.696 -1.656,1.028 -0.567,0.328 -1.156,0.648 -1.766,0.961 -0.609,0.308 -1.238,0.609 -1.887,0.902 -0.648,0.289 -1.32,0.574 -2.011,0.848 -0.696,0.273 -1.41,0.539 -2.149,0.801 -0.734,0.261 -1.496,0.511 -2.281,0.761 -0.785,0.246 -1.594,0.489 -2.43,0.727 -0.832,0.234 -1.691,0.465 -2.578,0.695 -0.883,0.227 -1.797,0.453 -2.734,0.676 -0.938,0.219 -1.902,0.437 -2.895,0.656 -0.996,0.215 -2.015,0.434 -3.066,0.645 -1.051,0.215 -2.133,0.429 -3.242,0.644 -1.11,0.215 -2.25,0.43 -3.418,0.645 1.168,0.215 2.308,0.429 3.418,0.644 1.109,0.211 2.191,0.426 3.242,0.641 1.051,0.215 2.07,0.43 3.066,0.648 0.993,0.215 1.957,0.434 2.895,0.657 0.937,0.222 1.851,0.445 2.734,0.675 0.887,0.227 1.746,0.457 2.578,0.696 0.836,0.238 1.645,0.476 2.43,0.726 0.785,0.246 1.547,0.5 2.281,0.762 0.739,0.258 1.453,0.523 2.149,0.801 0.691,0.273 1.363,0.554 2.011,0.847 0.649,0.293 1.278,0.59 1.887,0.903 0.61,0.308 1.199,0.629 1.766,0.961 0.57,0.328 1.121,0.672 1.656,1.023 0.531,0.356 1.047,0.723 1.543,1.098 0.5,0.379 0.98,0.769 1.445,1.176 0.465,0.406 0.914,0.824 1.348,1.257 0.434,0.434 0.852,0.883 1.258,1.348 0.406,0.469 0.797,0.949 1.176,1.445 0.378,0.5 0.742,1.012 1.097,1.547 0.352,0.531 0.696,1.082 1.028,1.653 0.328,0.57 0.648,1.156 0.961,1.765 0.308,0.61 0.609,1.238 0.898,1.887 0.293,0.652 0.574,1.32 0.852,2.016 0.273,0.691 0.539,1.406 0.8,2.144 0.258,0.738 0.512,1.5 0.762,2.281 0.246,0.785 0.488,1.594 0.723,2.43 0.238,0.832 0.468,1.691 0.699,2.578 0.226,0.887 0.453,1.797 0.672,2.735 0.222,0.937 0.441,1.902 0.66,2.898 0.215,0.992 0.43,2.016 0.644,3.062 0.215,1.051 0.43,2.133 0.645,3.243 0.211,1.109 0.426,2.25 0.645,3.421 0.214,-1.171 0.429,-2.312 0.64,-3.421 0.215,-1.11 0.43,-2.192 0.645,-3.243 0.215,-1.046 0.429,-2.07 0.644,-3.062 0.219,-0.996 0.438,-1.961 0.66,-2.898 0.223,-0.938 0.446,-1.848 0.672,-2.735 0.231,-0.887 0.461,-1.742 0.699,-2.578 0.235,-0.832 0.477,-1.645 0.727,-2.43 0.246,-0.781 0.5,-1.543 0.758,-2.281 0.262,-0.738 0.527,-1.453 0.801,-2.144 0.277,-0.696 0.558,-1.364 0.851,-2.016 0.289,-0.649 0.59,-1.277 0.899,-1.887 0.312,-0.609 0.632,-1.195 0.964,-1.765 0.329,-0.571 0.672,-1.122 1.024,-1.653 0.355,-0.535 0.719,-1.047 1.098,-1.547 0.378,-0.496 0.769,-0.976 1.175,-1.445 0.407,-0.465 0.825,-0.914 1.258,-1.348 0.434,-0.433 0.883,-0.851 1.348,-1.257 0.465,-0.407 0.945,-0.797 1.445,-1.176 0.496,-0.379 1.012,-0.742 1.543,-1.098 0.535,-0.351 1.086,-0.695 1.656,-1.023 0.567,-0.332 1.157,-0.653 1.766,-0.961 0.609,-0.313 1.238,-0.614 1.887,-0.903 0.648,-0.293 1.32,-0.574 2.015,-0.847 0.692,-0.278 1.407,-0.543 2.145,-0.801 0.738,-0.262 1.496,-0.516 2.281,-0.762 0.785,-0.25 1.594,-0.488 2.43,-0.726 0.832,-0.239 1.691,-0.469 2.578,-0.696 0.883,-0.23 1.797,-0.453 2.734,-0.675 0.938,-0.223 1.903,-0.442 2.895,-0.657 0.996,-0.218 2.015,-0.433 3.066,-0.648 1.051,-0.215 2.133,-0.43 3.242,-0.641 1.11,-0.215 2.25,-0.429 3.418,-0.644 -1.168,-0.215 -2.308,-0.43 -3.418,-0.645 -1.109,-0.215 -2.191,-0.429 -3.242,-0.644 -1.051,-0.211 -2.07,-0.43 -3.066,-0.645 -0.992,-0.219 -1.957,-0.437 -2.895,-0.656 -0.937,-0.223 -1.851,-0.449 -2.734,-0.676 -0.887,-0.23 -1.746,-0.461 -2.578,-0.695 -0.836,-0.238 -1.645,-0.481 -2.43,-0.727 -0.785,-0.25 -1.543,-0.5 -2.281,-0.761 -0.738,-0.262 -1.453,-0.528 -2.145,-0.801 -0.695,-0.274 -1.367,-0.559 -2.015,-0.848 -0.649,-0.293 -1.278,-0.594 -1.887,-0.902 -0.609,-0.313 -1.199,-0.629 -1.766,-0.961 -0.57,-0.332 -1.121,-0.672 -1.656,-1.028 -0.531,-0.351 -1.047,-0.718 -1.543,-1.097 -0.5,-0.379 -0.98,-0.77 -1.445,-1.176 -0.465,-0.402 -0.914,-0.824 -1.348,-1.258 -0.433,-0.433 -0.851,-0.883 -1.258,-1.347 -0.406,-0.465 -0.797,-0.946 -1.175,-1.442 -0.379,-0.5 -0.743,-1.015 -1.098,-1.547 -0.352,-0.531 -0.695,-1.086 -1.024,-1.652 -0.332,-0.57 -0.652,-1.16 -0.964,-1.77 -0.309,-0.609 -0.61,-1.238 -0.899,-1.886 -0.293,-0.649 -0.574,-1.321 -0.851,-2.012 -0.274,-0.695 -0.539,-1.41 -0.801,-2.145 -0.258,-0.738 -0.512,-1.5 -0.758,-2.285 -0.25,-0.785 -0.492,-1.593 -0.727,-2.426 -0.238,-0.835 -0.468,-1.695 -0.699,-2.578 -0.226,-0.886 -0.449,-1.796 -0.672,-2.738 -0.222,-0.937 -0.441,-1.902 -0.66,-2.894 -0.215,-0.993 -0.429,-2.016 -0.644,-3.067 -0.215,-1.051 -0.43,-2.129 -0.645,-3.238 -0.211,-1.113 -0.426,-2.25 -0.64,-3.422 z"
       style="fill:#000000;fill-opacity:1;fill-rule:nonzero;stroke:none"
       transform="scale(1.3333333)" />
    <path
       id="path7"
       d="m 179.832,60.574 c -0.121,0.656 -0.242,1.297 -0.363,1.922 -0.117,0.621 -0.239,1.227 -0.36,1.82 -0.121,0.59 -0.242,1.164 -0.363,1.719 -0.121,0.559 -0.246,1.102 -0.371,1.629 -0.121,0.527 -0.25,1.039 -0.375,1.535 -0.129,0.5 -0.262,0.981 -0.395,1.449 -0.132,0.469 -0.265,0.922 -0.406,1.364 -0.14,0.441 -0.281,0.867 -0.426,1.285 -0.148,0.414 -0.296,0.812 -0.453,1.203 -0.152,0.391 -0.312,0.766 -0.476,1.133 -0.164,0.363 -0.332,0.715 -0.504,1.058 -0.176,0.34 -0.356,0.672 -0.543,0.993 -0.184,0.32 -0.375,0.628 -0.574,0.929 -0.2,0.297 -0.407,0.586 -0.618,0.867 -0.21,0.282 -0.433,0.551 -0.66,0.813 -0.226,0.262 -0.461,0.512 -0.707,0.758 -0.242,0.242 -0.496,0.476 -0.758,0.707 -0.261,0.226 -0.531,0.445 -0.808,0.656 -0.281,0.215 -0.57,0.418 -0.871,0.617 -0.297,0.199 -0.606,0.391 -0.926,0.578 -0.32,0.184 -0.652,0.364 -0.996,0.539 -0.34,0.176 -0.691,0.344 -1.059,0.508 -0.363,0.164 -0.742,0.321 -1.129,0.477 -0.39,0.152 -0.793,0.305 -1.207,0.449 -0.414,0.145 -0.839,0.289 -1.281,0.426 -0.441,0.14 -0.894,0.277 -1.363,0.41 -0.469,0.133 -0.953,0.262 -1.449,0.391 -0.5,0.129 -1.012,0.253 -1.536,0.379 -0.527,0.124 -1.07,0.246 -1.628,0.371 -0.559,0.121 -1.133,0.242 -1.723,0.363 -0.59,0.117 -1.195,0.238 -1.82,0.359 -0.625,0.121 -1.266,0.242 -1.922,0.364 0.656,0.121 1.297,0.238 1.922,0.359 0.625,0.121 1.23,0.242 1.82,0.363 0.59,0.117 1.164,0.238 1.723,0.363 0.558,0.122 1.101,0.243 1.628,0.368 0.524,0.125 1.036,0.25 1.536,0.379 0.496,0.128 0.98,0.257 1.449,0.39 0.465,0.133 0.922,0.27 1.363,0.41 0.442,0.137 0.867,0.282 1.281,0.426 0.414,0.145 0.817,0.297 1.207,0.449 0.387,0.157 0.766,0.313 1.129,0.477 0.368,0.164 0.719,0.332 1.059,0.508 0.344,0.175 0.676,0.355 0.996,0.539 0.32,0.187 0.629,0.379 0.926,0.578 0.301,0.199 0.59,0.402 0.871,0.617 0.277,0.211 0.547,0.43 0.808,0.66 0.262,0.227 0.516,0.461 0.758,0.707 0.246,0.242 0.481,0.496 0.707,0.754 0.227,0.262 0.45,0.531 0.66,0.813 0.211,0.281 0.418,0.57 0.618,0.867 0.199,0.301 0.39,0.609 0.574,0.93 0.187,0.32 0.367,0.652 0.543,0.992 0.172,0.344 0.34,0.695 0.504,1.062 0.164,0.364 0.324,0.739 0.476,1.129 0.157,0.391 0.305,0.789 0.453,1.207 0.145,0.414 0.286,0.84 0.426,1.281 0.141,0.442 0.274,0.895 0.406,1.364 0.133,0.468 0.266,0.953 0.395,1.449 0.125,0.496 0.254,1.008 0.375,1.535 0.125,0.527 0.25,1.07 0.371,1.629 0.121,0.559 0.242,1.133 0.363,1.723 0.121,0.589 0.243,1.195 0.36,1.82 0.121,0.621 0.242,1.262 0.363,1.922 0.121,-0.66 0.242,-1.301 0.363,-1.922 0.121,-0.625 0.239,-1.231 0.36,-1.82 0.121,-0.59 0.242,-1.164 0.363,-1.723 0.121,-0.559 0.246,-1.102 0.371,-1.629 0.125,-0.527 0.25,-1.039 0.379,-1.535 0.125,-0.496 0.258,-0.981 0.391,-1.449 0.132,-0.469 0.269,-0.922 0.406,-1.364 0.14,-0.441 0.281,-0.867 0.43,-1.281 0.144,-0.418 0.293,-0.816 0.449,-1.207 0.152,-0.39 0.312,-0.765 0.476,-1.129 0.164,-0.367 0.332,-0.718 0.508,-1.062 0.172,-0.34 0.352,-0.672 0.539,-0.992 0.184,-0.321 0.375,-0.629 0.574,-0.93 0.2,-0.297 0.407,-0.586 0.618,-0.867 0.214,-0.282 0.433,-0.551 0.66,-0.813 0.226,-0.258 0.465,-0.512 0.707,-0.754 0.246,-0.246 0.496,-0.48 0.758,-0.707 0.261,-0.23 0.531,-0.449 0.812,-0.66 0.277,-0.215 0.566,-0.418 0.867,-0.617 0.297,-0.199 0.61,-0.391 0.93,-0.578 0.316,-0.184 0.648,-0.364 0.992,-0.539 0.34,-0.176 0.695,-0.344 1.059,-0.508 0.367,-0.164 0.742,-0.32 1.133,-0.477 0.386,-0.152 0.789,-0.304 1.203,-0.449 0.414,-0.144 0.843,-0.289 1.281,-0.426 0.441,-0.14 0.898,-0.277 1.367,-0.41 0.469,-0.133 0.949,-0.262 1.445,-0.39 0.5,-0.129 1.012,-0.254 1.539,-0.379 0.528,-0.125 1.067,-0.246 1.626,-0.368 0.558,-0.125 1.132,-0.246 1.722,-0.363 0.59,-0.121 1.195,-0.242 1.82,-0.363 0.625,-0.121 1.266,-0.238 1.922,-0.359 -0.656,-0.122 -1.297,-0.243 -1.922,-0.364 -0.625,-0.121 -1.23,-0.242 -1.82,-0.359 -0.59,-0.121 -1.164,-0.242 -1.722,-0.363 -0.559,-0.125 -1.098,-0.247 -1.626,-0.371 -0.527,-0.126 -1.039,-0.25 -1.539,-0.379 -0.496,-0.129 -0.976,-0.258 -1.445,-0.391 -0.469,-0.133 -0.926,-0.27 -1.367,-0.41 -0.438,-0.137 -0.867,-0.281 -1.281,-0.426 -0.414,-0.144 -0.817,-0.297 -1.203,-0.449 -0.391,-0.156 -0.766,-0.313 -1.133,-0.477 -0.364,-0.164 -0.719,-0.332 -1.059,-0.508 -0.344,-0.171 -0.676,-0.351 -0.992,-0.539 -0.32,-0.187 -0.633,-0.379 -0.93,-0.578 -0.301,-0.199 -0.59,-0.402 -0.867,-0.617 -0.281,-0.211 -0.551,-0.43 -0.812,-0.656 -0.262,-0.231 -0.512,-0.465 -0.758,-0.707 -0.242,-0.246 -0.481,-0.496 -0.707,-0.758 -0.227,-0.262 -0.446,-0.531 -0.66,-0.813 -0.211,-0.281 -0.418,-0.57 -0.618,-0.867 -0.199,-0.301 -0.39,-0.609 -0.574,-0.929 -0.187,-0.321 -0.367,-0.653 -0.539,-0.993 -0.176,-0.343 -0.344,-0.695 -0.508,-1.058 -0.164,-0.367 -0.324,-0.742 -0.476,-1.133 -0.156,-0.391 -0.305,-0.789 -0.449,-1.203 -0.149,-0.418 -0.29,-0.844 -0.43,-1.285 -0.137,-0.442 -0.274,-0.895 -0.406,-1.364 -0.133,-0.468 -0.266,-0.949 -0.391,-1.449 -0.129,-0.496 -0.254,-1.008 -0.379,-1.535 -0.125,-0.527 -0.25,-1.07 -0.371,-1.629 -0.121,-0.555 -0.242,-1.129 -0.363,-1.719 -0.121,-0.593 -0.239,-1.199 -0.36,-1.82 -0.121,-0.625 -0.242,-1.266 -0.363,-1.922 z"
       style="fill:#000000;fill-opacity:1;fill-rule:nonzero;stroke:none"
       transform="scale(1.3333333)" />
    <path
       id="path8"
       d="m 899.969,232.043 c 0,3.172 -0.696,6.047 -2.086,8.625 -1.375,2.578 -3.211,4.578 -5.508,6 -1.594,0.984 -3.375,1.695 -5.344,2.133 -1.953,0.437 -4.531,0.656 -7.734,0.656 h -8.813 v -34.898 h 8.719 c 3.406,0 6.109,0.25 8.109,0.75 2.016,0.484 3.719,1.156 5.11,2.015 2.375,1.485 4.226,3.461 5.555,5.93 1.328,2.469 1.992,5.398 1.992,8.789 z m -4.852,-0.07 c 0,-2.735 -0.476,-5.039 -1.429,-6.914 -0.954,-1.875 -2.376,-3.352 -4.266,-4.43 -1.375,-0.781 -2.836,-1.32 -4.383,-1.617 -1.547,-0.313 -3.398,-0.469 -5.555,-0.469 h -4.359 v 26.93 h 4.359 c 2.235,0 4.18,-0.164 5.836,-0.493 1.672,-0.328 3.203,-0.937 4.594,-1.828 1.734,-1.109 3.031,-2.57 3.891,-4.382 0.875,-1.813 1.312,-4.079 1.312,-6.797 z m 16.735,-13.078 h -4.969 v -4.571 h 4.969 z m -0.282,30.562 h -4.406 v -26.18 h 4.406 z m 29.953,-2.977 c 0,4.438 -1.007,7.696 -3.023,9.774 -2.016,2.078 -5.117,3.117 -9.305,3.117 -1.39,0 -2.75,-0.101 -4.078,-0.305 -1.312,-0.187 -2.609,-0.461 -3.89,-0.82 v -4.5 h 0.234 c 0.719,0.281 1.859,0.625 3.422,1.031 1.562,0.422 3.125,0.633 4.687,0.633 1.5,0 2.742,-0.18 3.727,-0.539 0.984,-0.359 1.75,-0.859 2.297,-1.5 0.547,-0.609 0.937,-1.344 1.172,-2.203 0.234,-0.859 0.351,-1.82 0.351,-2.883 v -2.39 c -1.328,1.062 -2.601,1.859 -3.82,2.39 -1.203,0.516 -2.742,0.774 -4.617,0.774 -3.125,0 -5.61,-1.125 -7.453,-3.375 -1.829,-2.266 -2.743,-5.454 -2.743,-9.563 0,-2.25 0.313,-4.187 0.938,-5.812 0.64,-1.641 1.508,-3.055 2.601,-4.243 1.016,-1.109 2.25,-1.968 3.704,-2.578 1.453,-0.625 2.898,-0.937 4.335,-0.937 1.516,0 2.782,0.156 3.797,0.469 1.032,0.296 2.118,0.757 3.258,1.382 l 0.281,-1.125 h 4.125 z m -4.406,-4.218 v -14.274 c -1.172,-0.531 -2.265,-0.906 -3.281,-1.125 -1,-0.234 -2,-0.351 -3,-0.351 -2.422,0 -4.328,0.812 -5.719,2.437 -1.39,1.625 -2.086,3.985 -2.086,7.078 0,2.938 0.516,5.164 1.547,6.68 1.031,1.516 2.742,2.273 5.133,2.273 1.281,0 2.562,-0.242 3.844,-0.726 1.297,-0.5 2.484,-1.164 3.562,-1.992 z m 17.813,-23.367 h -4.969 v -4.571 h 4.969 z m -0.282,30.562 h -4.406 v -26.18 h 4.406 z m 22.313,-0.234 c -0.828,0.218 -1.734,0.398 -2.719,0.539 -0.969,0.14 -1.836,0.211 -2.601,0.211 -2.672,0 -4.703,-0.719 -6.094,-2.157 -1.391,-1.437 -2.086,-3.742 -2.086,-6.914 V 226.98 h -2.977 v -3.703 h 2.977 v -7.523 h 4.406 v 7.523 h 9.094 v 3.703 h -9.094 v 11.93 c 0,1.375 0.031,2.453 0.094,3.235 0.062,0.765 0.281,1.484 0.656,2.156 0.344,0.625 0.813,1.086 1.406,1.383 0.61,0.281 1.532,0.421 2.766,0.421 0.719,0 1.469,-0.101 2.25,-0.304 0.781,-0.219 1.344,-0.399 1.688,-0.539 h 0.234 z m 25.664,0.234 h -4.383 v -2.789 c -0.39,0.266 -0.922,0.641 -1.594,1.125 -0.656,0.469 -1.296,0.844 -1.921,1.125 -0.735,0.359 -1.579,0.656 -2.532,0.891 -0.953,0.25 -2.07,0.375 -3.351,0.375 -2.36,0 -4.36,-0.782 -6,-2.344 -1.641,-1.563 -2.461,-3.555 -2.461,-5.977 0,-1.984 0.422,-3.586 1.265,-4.804 0.86,-1.235 2.079,-2.204 3.657,-2.907 1.593,-0.703 3.507,-1.179 5.742,-1.429 2.234,-0.25 4.633,-0.438 7.195,-0.563 v -0.68 c 0,-1 -0.18,-1.828 -0.539,-2.484 -0.344,-0.656 -0.844,-1.172 -1.5,-1.547 -0.625,-0.359 -1.375,-0.601 -2.25,-0.726 -0.875,-0.125 -1.789,-0.188 -2.742,-0.188 -1.156,0 -2.445,0.156 -3.867,0.469 -1.422,0.297 -2.891,0.734 -4.406,1.312 h -0.235 v -4.476 c 0.859,-0.235 2.102,-0.492 3.727,-0.774 1.625,-0.281 3.226,-0.421 4.804,-0.421 1.844,0 3.446,0.156 4.805,0.468 1.375,0.297 2.563,0.813 3.563,1.547 0.984,0.719 1.734,1.649 2.25,2.789 0.515,1.141 0.773,2.555 0.773,4.242 z m -4.383,-6.445 v -7.289 c -1.344,0.078 -2.93,0.195 -4.758,0.351 -1.812,0.156 -3.25,0.383 -4.312,0.68 -1.266,0.359 -2.289,0.922 -3.07,1.687 -0.782,0.75 -1.172,1.789 -1.172,3.118 0,1.5 0.453,2.632 1.359,3.398 0.906,0.75 2.289,1.125 4.149,1.125 1.546,0 2.96,-0.297 4.242,-0.891 1.281,-0.609 2.468,-1.336 3.562,-2.179 z m 17.32,6.445 h -4.406 v -36.469 h 4.406 z m 38.25,0 h -13.781 v -3.562 h 4.571 v -27.774 h -4.571 v -3.562 h 13.781 v 3.562 h -4.57 v 27.774 h 4.57 z m 29.438,0 h -4.406 v -14.906 c 0,-1.203 -0.071,-2.328 -0.211,-3.375 -0.141,-1.063 -0.399,-1.891 -0.774,-2.485 -0.39,-0.656 -0.953,-1.14 -1.687,-1.453 -0.734,-0.328 -1.688,-0.492 -2.86,-0.492 -1.203,0 -2.46,0.297 -3.773,0.891 -1.312,0.593 -2.57,1.351 -3.773,2.273 v 19.547 h -4.407 v -26.18 h 4.407 v 2.907 c 1.375,-1.141 2.796,-2.032 4.265,-2.672 1.469,-0.641 2.977,-0.961 4.524,-0.961 2.828,0 4.984,0.851 6.468,2.554 1.485,1.704 2.227,4.157 2.227,7.36 z m 30.375,0 h -4.406 v -14.906 c 0,-1.203 -0.071,-2.328 -0.211,-3.375 -0.141,-1.063 -0.399,-1.891 -0.774,-2.485 -0.39,-0.656 -0.953,-1.14 -1.687,-1.453 -0.735,-0.328 -1.688,-0.492 -2.859,-0.492 -1.204,0 -2.461,0.297 -3.774,0.891 -1.312,0.593 -2.57,1.351 -3.773,2.273 v 19.547 h -4.407 v -26.18 h 4.407 v 2.907 c 1.375,-1.141 2.797,-2.032 4.265,-2.672 1.469,-0.641 2.977,-0.961 4.524,-0.961 2.828,0 4.984,0.851 6.468,2.554 1.485,1.704 2.227,4.157 2.227,7.36 z m 30.797,-13.078 c 0,4.266 -1.094,7.633 -3.281,10.101 -2.188,2.469 -5.118,3.704 -8.789,3.704 -3.704,0 -6.649,-1.235 -8.836,-3.704 -2.172,-2.468 -3.258,-5.835 -3.258,-10.101 0,-4.266 1.086,-7.633 3.258,-10.102 2.187,-2.484 5.132,-3.726 8.836,-3.726 3.671,0 6.601,1.242 8.789,3.726 2.187,2.469 3.281,5.836 3.281,10.102 z m -4.547,0 c 0,-3.391 -0.664,-5.906 -1.992,-7.547 -1.328,-1.656 -3.172,-2.484 -5.531,-2.484 -2.391,0 -4.25,0.828 -5.579,2.484 -1.312,1.641 -1.968,4.156 -1.968,7.547 0,3.281 0.664,5.773 1.992,7.476 1.328,1.688 3.18,2.532 5.555,2.532 2.343,0 4.179,-0.836 5.507,-2.508 1.344,-1.688 2.016,-4.188 2.016,-7.5 z m 33.656,-13.102 -10.593,26.18 h -4.43 l -10.524,-26.18 h 4.782 l 8.109,20.836 8.039,-20.836 z m 25.172,26.18 h -4.383 v -2.789 c -0.39,0.266 -0.922,0.641 -1.593,1.125 -0.657,0.469 -1.297,0.844 -1.922,1.125 -0.735,0.359 -1.578,0.656 -2.532,0.891 -0.953,0.25 -2.07,0.375 -3.351,0.375 -2.36,0 -4.36,-0.782 -6,-2.344 -1.641,-1.563 -2.461,-3.555 -2.461,-5.977 0,-1.984 0.422,-3.586 1.266,-4.804 0.859,-1.235 2.078,-2.204 3.656,-2.907 1.594,-0.703 3.508,-1.179 5.742,-1.429 2.234,-0.25 4.633,-0.438 7.195,-0.563 v -0.68 c 0,-1 -0.179,-1.828 -0.539,-2.484 -0.343,-0.656 -0.843,-1.172 -1.5,-1.547 -0.625,-0.359 -1.375,-0.601 -2.25,-0.726 -0.875,-0.125 -1.789,-0.188 -2.742,-0.188 -1.156,0 -2.445,0.156 -3.867,0.469 -1.422,0.297 -2.891,0.734 -4.406,1.312 h -0.235 v -4.476 c 0.86,-0.235 2.102,-0.492 3.727,-0.774 1.625,-0.281 3.226,-0.421 4.804,-0.421 1.844,0 3.446,0.156 4.805,0.468 1.375,0.297 2.563,0.813 3.563,1.547 0.984,0.719 1.734,1.649 2.25,2.789 0.515,1.141 0.773,2.555 0.773,4.242 z m -4.383,-6.445 v -7.289 c -1.343,0.078 -2.929,0.195 -4.758,0.351 -1.812,0.156 -3.25,0.383 -4.312,0.68 -1.266,0.359 -2.289,0.922 -3.07,1.687 -0.782,0.75 -1.172,1.789 -1.172,3.118 0,1.5 0.453,2.632 1.359,3.398 0.906,0.75 2.289,1.125 4.149,1.125 1.546,0 2.961,-0.297 4.242,-0.891 1.281,-0.609 2.469,-1.336 3.562,-2.179 z m 26.461,6.211 c -0.828,0.218 -1.734,0.398 -2.719,0.539 -0.968,0.14 -1.835,0.211 -2.601,0.211 -2.672,0 -4.703,-0.719 -6.094,-2.157 -1.39,-1.437 -2.086,-3.742 -2.086,-6.914 V 226.98 h -2.976 v -3.703 h 2.976 v -7.523 h 4.407 v 7.523 h 9.093 v 3.703 h -9.093 v 11.93 c 0,1.375 0.031,2.453 0.093,3.235 0.063,0.765 0.281,1.484 0.657,2.156 0.343,0.625 0.812,1.086 1.406,1.383 0.609,0.281 1.531,0.421 2.765,0.421 0.719,0 1.469,-0.101 2.25,-0.304 0.782,-0.219 1.344,-0.399 1.688,-0.539 h 0.234 z m 10.055,-30.328 h -4.969 v -4.571 h 4.969 z m -0.281,30.562 h -4.407 v -26.18 h 4.407 z m 31.031,-13.078 c 0,4.266 -1.094,7.633 -3.281,10.101 -2.188,2.469 -5.117,3.704 -8.789,3.704 -3.704,0 -6.649,-1.235 -8.836,-3.704 -2.172,-2.468 -3.258,-5.835 -3.258,-10.101 0,-4.266 1.086,-7.633 3.258,-10.102 2.187,-2.484 5.132,-3.726 8.836,-3.726 3.672,0 6.601,1.242 8.789,3.726 2.187,2.469 3.281,5.836 3.281,10.102 z m -4.547,0 c 0,-3.391 -0.664,-5.906 -1.992,-7.547 -1.328,-1.656 -3.172,-2.484 -5.531,-2.484 -2.391,0 -4.25,0.828 -5.578,2.484 -1.313,1.641 -1.969,4.156 -1.969,7.547 0,3.281 0.664,5.773 1.992,7.476 1.328,1.688 3.18,2.532 5.555,2.532 2.343,0 4.179,-0.836 5.507,-2.508 1.344,-1.688 2.016,-4.188 2.016,-7.5 z m 33.258,13.078 h -4.406 v -14.906 c 0,-1.203 -0.071,-2.328 -0.211,-3.375 -0.141,-1.063 -0.399,-1.891 -0.774,-2.485 -0.39,-0.656 -0.953,-1.14 -1.687,-1.453 -0.735,-0.328 -1.688,-0.492 -2.86,-0.492 -1.203,0 -2.461,0.297 -3.773,0.891 -1.313,0.593 -2.57,1.351 -3.774,2.273 v 19.547 h -4.406 v -26.18 h 4.406 v 2.907 c 1.376,-1.141 2.797,-2.032 4.266,-2.672 1.469,-0.641 2.977,-0.961 4.524,-0.961 2.828,0 4.984,0.851 6.468,2.554 1.485,1.704 2.227,4.157 2.227,7.36 z m 45.703,0 h -4.383 v -2.789 c -0.39,0.266 -0.922,0.641 -1.594,1.125 -0.656,0.469 -1.296,0.844 -1.921,1.125 -0.735,0.359 -1.579,0.656 -2.532,0.891 -0.953,0.25 -2.07,0.375 -3.351,0.375 -2.36,0 -4.36,-0.782 -6,-2.344 -1.641,-1.563 -2.461,-3.555 -2.461,-5.977 0,-1.984 0.422,-3.586 1.265,-4.804 0.86,-1.235 2.079,-2.204 3.657,-2.907 1.593,-0.703 3.508,-1.179 5.742,-1.429 2.234,-0.25 4.633,-0.438 7.195,-0.563 v -0.68 c 0,-1 -0.179,-1.828 -0.539,-2.484 -0.344,-0.656 -0.844,-1.172 -1.5,-1.547 -0.625,-0.359 -1.375,-0.601 -2.25,-0.726 -0.875,-0.125 -1.789,-0.188 -2.742,-0.188 -1.156,0 -2.445,0.156 -3.867,0.469 -1.422,0.297 -2.891,0.734 -4.407,1.312 h -0.234 v -4.476 c 0.86,-0.235 2.102,-0.492 3.727,-0.774 1.625,-0.281 3.226,-0.421 4.804,-0.421 1.844,0 3.446,0.156 4.805,0.468 1.375,0.297 2.563,0.813 3.563,1.547 0.984,0.719 1.734,1.649 2.25,2.789 0.515,1.141 0.773,2.555 0.773,4.242 z m -4.383,-6.445 v -7.289 c -1.344,0.078 -2.929,0.195 -4.758,0.351 -1.812,0.156 -3.25,0.383 -4.312,0.68 -1.266,0.359 -2.289,0.922 -3.07,1.687 -0.782,0.75 -1.172,1.789 -1.172,3.118 0,1.5 0.453,2.632 1.359,3.398 0.906,0.75 2.289,1.125 4.148,1.125 1.547,0 2.961,-0.297 4.243,-0.891 1.281,-0.609 2.468,-1.336 3.562,-2.179 z m 34.758,6.445 h -4.406 v -14.906 c 0,-1.203 -0.071,-2.328 -0.211,-3.375 -0.141,-1.063 -0.399,-1.891 -0.774,-2.485 -0.39,-0.656 -0.953,-1.14 -1.687,-1.453 -0.735,-0.328 -1.688,-0.492 -2.859,-0.492 -1.204,0 -2.461,0.297 -3.774,0.891 -1.312,0.593 -2.57,1.351 -3.773,2.273 v 19.547 h -4.407 v -26.18 h 4.407 v 2.907 c 1.375,-1.141 2.797,-2.032 4.265,-2.672 1.469,-0.641 2.977,-0.961 4.524,-0.961 2.828,0 4.984,0.851 6.468,2.554 1.485,1.704 2.227,4.157 2.227,7.36 z m 29.719,0 h -4.406 v -2.742 c -1.266,1.094 -2.586,1.945 -3.961,2.555 -1.375,0.609 -2.868,0.914 -4.477,0.914 -3.125,0 -5.609,-1.204 -7.453,-3.61 -1.828,-2.406 -2.742,-5.742 -2.742,-10.008 0,-2.218 0.312,-4.195 0.937,-5.929 0.641,-1.735 1.5,-3.211 2.578,-4.43 1.063,-1.187 2.297,-2.094 3.703,-2.719 1.422,-0.625 2.891,-0.937 4.407,-0.937 1.375,0 2.593,0.148 3.656,0.445 1.062,0.281 2.18,0.727 3.352,1.336 v -11.344 h 4.406 z m -4.406,-6.445 v -15.024 c -1.188,-0.531 -2.25,-0.898 -3.188,-1.101 -0.938,-0.203 -1.961,-0.305 -3.07,-0.305 -2.469,0 -4.391,0.859 -5.766,2.578 -1.375,1.719 -2.062,4.156 -2.062,7.313 0,3.109 0.531,5.476 1.593,7.101 1.063,1.61 2.766,2.414 5.11,2.414 1.25,0 2.515,-0.273 3.797,-0.82 1.281,-0.563 2.476,-1.281 3.586,-2.156 z"
       style="fill:#000000;fill-opacity:1;fill-rule:nonzero;stroke:none"
       transform="scale(1.3333333)" />
    <path
       id="path9"
       d="m 899.359,313.594 h -6.023 l -11.672,-13.875 h -6.539 v 13.875 h -4.641 v -34.899 h 9.774 c 2.109,0 3.867,0.141 5.273,0.422 1.407,0.266 2.672,0.75 3.797,1.453 1.266,0.797 2.25,1.805 2.953,3.024 0.719,1.203 1.078,2.734 1.078,4.594 0,2.515 -0.632,4.624 -1.898,6.328 -1.266,1.687 -3.008,2.961 -5.227,3.82 z m -10.851,-25.078 c 0,-1 -0.18,-1.883 -0.539,-2.649 -0.344,-0.781 -0.922,-1.437 -1.735,-1.969 -0.672,-0.453 -1.468,-0.765 -2.39,-0.937 -0.922,-0.188 -2.008,-0.281 -3.258,-0.281 h -5.461 v 13.172 h 4.687 c 1.469,0 2.75,-0.125 3.844,-0.375 1.094,-0.266 2.024,-0.75 2.789,-1.454 0.703,-0.656 1.219,-1.406 1.547,-2.25 0.344,-0.859 0.516,-1.945 0.516,-3.257 z m 35.742,12.445 h -19.289 c 0,1.609 0.242,3.016 0.727,4.219 0.484,1.187 1.148,2.164 1.992,2.929 0.812,0.75 1.773,1.313 2.882,1.688 1.126,0.375 2.36,0.562 3.704,0.562 1.781,0 3.57,-0.351 5.367,-1.054 1.812,-0.719 3.101,-1.422 3.867,-2.11 h 0.234 V 312 c -1.484,0.625 -3,1.148 -4.546,1.57 -1.547,0.422 -3.172,0.633 -4.876,0.633 -4.343,0 -7.734,-1.172 -10.171,-3.515 -2.438,-2.36 -3.657,-5.704 -3.657,-10.032 0,-4.281 1.164,-7.679 3.493,-10.195 2.343,-2.516 5.421,-3.773 9.234,-3.773 3.531,0 6.25,1.031 8.156,3.093 1.922,2.063 2.883,4.992 2.883,8.789 z m -4.289,-3.375 c -0.016,-2.313 -0.602,-4.102 -1.758,-5.367 -1.141,-1.266 -2.883,-1.899 -5.226,-1.899 -2.36,0 -4.243,0.696 -5.649,2.086 -1.39,1.391 -2.18,3.117 -2.367,5.18 z m 29.672,8.461 c 0,2.391 -0.992,4.351 -2.977,5.883 -1.968,1.531 -4.664,2.297 -8.086,2.297 -1.937,0 -3.718,-0.227 -5.343,-0.68 -1.61,-0.469 -2.961,-0.977 -4.055,-1.524 v -4.945 h 0.234 c 1.391,1.047 2.938,1.883 4.641,2.508 1.703,0.609 3.336,0.914 4.898,0.914 1.938,0 3.453,-0.312 4.547,-0.938 1.094,-0.624 1.641,-1.609 1.641,-2.953 0,-1.031 -0.297,-1.812 -0.891,-2.343 -0.594,-0.532 -1.734,-0.985 -3.422,-1.36 -0.625,-0.14 -1.445,-0.304 -2.461,-0.492 -1,-0.187 -1.914,-0.391 -2.742,-0.609 -2.297,-0.61 -3.929,-1.5 -4.898,-2.672 -0.953,-1.188 -1.43,-2.641 -1.43,-4.36 0,-1.078 0.219,-2.093 0.656,-3.046 0.453,-0.954 1.133,-1.805 2.039,-2.555 0.875,-0.734 1.985,-1.313 3.328,-1.734 1.36,-0.438 2.876,-0.657 4.547,-0.657 1.563,0 3.141,0.196 4.735,0.586 1.609,0.375 2.945,0.836 4.008,1.383 v 4.711 h -0.235 c -1.125,-0.828 -2.492,-1.523 -4.101,-2.086 -1.61,-0.578 -3.188,-0.867 -4.735,-0.867 -1.609,0 -2.969,0.312 -4.078,0.937 -1.109,0.61 -1.664,1.524 -1.664,2.743 0,1.078 0.336,1.89 1.008,2.437 0.656,0.547 1.719,0.992 3.187,1.336 0.813,0.187 1.719,0.375 2.719,0.562 1.016,0.188 1.859,0.36 2.531,0.516 2.047,0.469 3.625,1.273 4.735,2.414 1.109,1.156 1.664,2.688 1.664,4.594 z m 28.219,-5.086 h -19.29 c 0,1.609 0.243,3.016 0.727,4.219 0.484,1.187 1.149,2.164 1.992,2.929 0.813,0.75 1.774,1.313 2.883,1.688 1.125,0.375 2.359,0.562 3.703,0.562 1.781,0 3.571,-0.351 5.367,-1.054 1.813,-0.719 3.102,-1.422 3.868,-2.11 h 0.234 V 312 c -1.484,0.625 -3,1.148 -4.547,1.57 -1.547,0.422 -3.172,0.633 -4.875,0.633 -4.344,0 -7.734,-1.172 -10.172,-3.515 -2.437,-2.36 -3.656,-5.704 -3.656,-10.032 0,-4.281 1.164,-7.679 3.492,-10.195 2.344,-2.516 5.422,-3.773 9.234,-3.773 3.532,0 6.25,1.031 8.157,3.093 1.922,2.063 2.883,4.992 2.883,8.789 z m -4.29,-3.375 c -0.015,-2.313 -0.601,-4.102 -1.757,-5.367 -1.141,-1.266 -2.883,-1.899 -5.227,-1.899 -2.359,0 -4.242,0.696 -5.648,2.086 -1.391,1.391 -2.18,3.117 -2.368,5.18 z m 31.313,16.008 h -4.383 v -2.789 c -0.39,0.265 -0.922,0.64 -1.594,1.125 -0.656,0.468 -1.296,0.843 -1.921,1.125 -0.735,0.359 -1.579,0.656 -2.532,0.89 -0.953,0.25 -2.07,0.375 -3.351,0.375 -2.36,0 -4.36,-0.781 -6,-2.343 -1.641,-1.563 -2.461,-3.555 -2.461,-5.977 0,-1.984 0.422,-3.586 1.265,-4.805 0.86,-1.234 2.079,-2.203 3.657,-2.906 1.593,-0.703 3.507,-1.18 5.742,-1.43 2.234,-0.25 4.633,-0.437 7.195,-0.562 v -0.68 c 0,-1 -0.18,-1.828 -0.539,-2.484 -0.344,-0.656 -0.844,-1.172 -1.5,-1.547 -0.625,-0.359 -1.375,-0.602 -2.25,-0.727 -0.875,-0.125 -1.789,-0.187 -2.742,-0.187 -1.156,0 -2.445,0.156 -3.867,0.469 -1.422,0.297 -2.891,0.734 -4.406,1.312 h -0.235 v -4.476 c 0.859,-0.235 2.102,-0.493 3.727,-0.774 1.625,-0.281 3.226,-0.422 4.804,-0.422 1.844,0 3.446,0.157 4.805,0.469 1.375,0.297 2.563,0.812 3.563,1.547 0.984,0.719 1.734,1.648 2.25,2.789 0.515,1.141 0.773,2.555 0.773,4.242 z m -4.383,-6.446 v -7.289 c -1.344,0.079 -2.93,0.196 -4.758,0.352 -1.812,0.156 -3.25,0.383 -4.312,0.68 -1.266,0.359 -2.289,0.921 -3.07,1.687 -0.782,0.75 -1.172,1.789 -1.172,3.117 0,1.5 0.453,2.633 1.359,3.399 0.906,0.75 2.289,1.125 4.149,1.125 1.546,0 2.96,-0.297 4.242,-0.891 1.281,-0.609 2.468,-1.336 3.562,-2.18 z m 29.203,-14.929 h -0.234 c -0.656,-0.157 -1.297,-0.266 -1.922,-0.328 -0.609,-0.079 -1.336,-0.118 -2.18,-0.118 -1.359,0 -2.671,0.305 -3.937,0.915 -1.266,0.593 -2.484,1.367 -3.656,2.32 v 18.586 h -4.407 v -26.18 h 4.407 v 3.867 c 1.75,-1.406 3.289,-2.398 4.617,-2.976 1.344,-0.594 2.711,-0.891 4.101,-0.891 0.766,0 1.321,0.024 1.664,0.07 0.344,0.032 0.86,0.102 1.547,0.211 z m 23.508,19.734 c -1.469,0.703 -2.867,1.25 -4.195,1.641 -1.313,0.39 -2.711,0.586 -4.196,0.586 -1.89,0 -3.624,-0.274 -5.203,-0.821 -1.578,-0.562 -2.929,-1.406 -4.054,-2.531 -1.141,-1.125 -2.024,-2.547 -2.649,-4.266 -0.625,-1.718 -0.937,-3.726 -0.937,-6.023 0,-4.281 1.172,-7.641 3.515,-10.078 2.36,-2.438 5.469,-3.656 9.328,-3.656 1.5,0 2.969,0.211 4.407,0.633 1.453,0.421 2.781,0.937 3.984,1.546 v 4.899 h -0.234 c -1.344,-1.047 -2.735,-1.852 -4.172,-2.414 -1.422,-0.563 -2.813,-0.844 -4.172,-0.844 -2.5,0 -4.477,0.844 -5.93,2.531 -1.437,1.672 -2.156,4.133 -2.156,7.383 0,3.156 0.703,5.586 2.109,7.289 1.422,1.688 3.414,2.531 5.977,2.531 0.891,0 1.797,-0.117 2.719,-0.351 0.922,-0.235 1.75,-0.539 2.484,-0.914 0.641,-0.328 1.242,-0.672 1.805,-1.032 0.562,-0.374 1.008,-0.695 1.336,-0.96 h 0.234 z m 27.539,1.641 h -4.406 v -14.906 c 0,-1.204 -0.07,-2.329 -0.211,-3.376 -0.141,-1.062 -0.398,-1.89 -0.773,-2.484 -0.391,-0.656 -0.954,-1.14 -1.688,-1.453 -0.734,-0.328 -1.687,-0.492 -2.859,-0.492 -1.203,0 -2.461,0.297 -3.774,0.89 -1.312,0.594 -2.57,1.352 -3.773,2.274 v 19.547 h -4.406 v -36.469 h 4.406 v 13.195 c 1.375,-1.14 2.797,-2.031 4.265,-2.672 1.469,-0.64 2.977,-0.96 4.524,-0.96 2.828,0 4.984,0.851 6.469,2.554 1.484,1.703 2.226,4.156 2.226,7.36 z m 39.446,-32.203 h -0.235 c -0.484,-0.141 -1.117,-0.282 -1.898,-0.422 -0.782,-0.157 -1.469,-0.235 -2.063,-0.235 -1.89,0 -3.265,0.422 -4.125,1.266 -0.844,0.828 -1.265,2.336 -1.265,4.523 v 0.891 h 7.945 v 3.703 h -7.805 v 22.477 h -4.406 v -22.477 h -2.977 v -3.703 h 2.977 v -0.867 c 0,-3.109 0.773,-5.492 2.32,-7.149 1.547,-1.671 3.782,-2.507 6.703,-2.507 0.985,0 1.868,0.047 2.649,0.14 0.797,0.094 1.523,0.203 2.18,0.328 z m 25.101,19.125 c 0,4.265 -1.094,7.632 -3.281,10.101 -2.188,2.469 -5.117,3.703 -8.789,3.703 -3.703,0 -6.649,-1.234 -8.836,-3.703 -2.172,-2.469 -3.258,-5.836 -3.258,-10.101 0,-4.266 1.086,-7.633 3.258,-10.102 2.187,-2.484 5.133,-3.726 8.836,-3.726 3.672,0 6.601,1.242 8.789,3.726 2.187,2.469 3.281,5.836 3.281,10.102 z m -4.547,0 c 0,-3.391 -0.664,-5.907 -1.992,-7.547 -1.328,-1.657 -3.172,-2.485 -5.531,-2.485 -2.391,0 -4.25,0.828 -5.578,2.485 -1.313,1.64 -1.969,4.156 -1.969,7.547 0,3.281 0.664,5.773 1.992,7.476 1.328,1.688 3.18,2.531 5.555,2.531 2.343,0 4.179,-0.835 5.508,-2.507 1.343,-1.688 2.015,-4.188 2.015,-7.5 z m 27.703,-8.297 h -0.234 c -0.656,-0.157 -1.297,-0.266 -1.922,-0.328 -0.609,-0.079 -1.336,-0.118 -2.18,-0.118 -1.359,0 -2.671,0.305 -3.937,0.915 -1.266,0.593 -2.484,1.367 -3.656,2.32 v 18.586 h -4.407 v -26.18 h 4.407 v 3.867 c 1.75,-1.406 3.289,-2.398 4.617,-2.976 1.344,-0.594 2.711,-0.891 4.101,-0.891 0.766,0 1.321,0.024 1.664,0.07 0.344,0.032 0.86,0.102 1.547,0.211 z m 48.328,18.843 c -0.859,0.376 -1.64,0.727 -2.343,1.055 -0.688,0.328 -1.594,0.672 -2.719,1.031 -0.953,0.297 -1.992,0.547 -3.117,0.75 -1.11,0.219 -2.336,0.329 -3.68,0.329 -2.531,0 -4.836,-0.352 -6.914,-1.055 -2.062,-0.719 -3.859,-1.836 -5.391,-3.352 -1.5,-1.484 -2.671,-3.367 -3.515,-5.648 -0.844,-2.297 -1.266,-4.961 -1.266,-7.992 0,-2.875 0.406,-5.446 1.219,-7.711 0.812,-2.266 1.984,-4.18 3.515,-5.742 1.485,-1.516 3.274,-2.672 5.368,-3.469 2.109,-0.797 4.445,-1.196 7.008,-1.196 1.874,0 3.742,0.227 5.601,0.68 1.875,0.453 3.953,1.25 6.234,2.391 v 5.508 h -0.351 c -1.922,-1.61 -3.828,-2.782 -5.719,-3.516 -1.891,-0.734 -3.914,-1.102 -6.07,-1.102 -1.766,0 -3.36,0.289 -4.781,0.868 -1.407,0.562 -2.664,1.445 -3.774,2.648 -1.078,1.172 -1.922,2.656 -2.531,4.453 -0.594,1.781 -0.891,3.844 -0.891,6.188 0,2.453 0.328,4.562 0.985,6.328 0.671,1.765 1.531,3.203 2.578,4.312 1.093,1.157 2.367,2.016 3.82,2.578 1.469,0.547 3.016,0.821 4.641,0.821 2.234,0 4.328,-0.383 6.281,-1.149 1.953,-0.765 3.781,-1.914 5.484,-3.445 h 0.328 z m 28.524,-10.546 c 0,4.265 -1.094,7.632 -3.281,10.101 -2.188,2.469 -5.118,3.703 -8.789,3.703 -3.704,0 -6.649,-1.234 -8.836,-3.703 -2.172,-2.469 -3.258,-5.836 -3.258,-10.101 0,-4.266 1.086,-7.633 3.258,-10.102 2.187,-2.484 5.132,-3.726 8.836,-3.726 3.671,0 6.601,1.242 8.789,3.726 2.187,2.469 3.281,5.836 3.281,10.102 z m -4.547,0 c 0,-3.391 -0.664,-5.907 -1.992,-7.547 -1.328,-1.657 -3.172,-2.485 -5.531,-2.485 -2.391,0 -4.25,0.828 -5.579,2.485 -1.312,1.64 -1.968,4.156 -1.968,7.547 0,3.281 0.664,5.773 1.992,7.476 1.328,1.688 3.18,2.531 5.555,2.531 2.343,0 4.179,-0.835 5.507,-2.507 1.344,-1.688 2.016,-4.188 2.016,-7.5 z m 33.258,13.078 h -4.406 v -14.906 c 0,-1.204 -0.071,-2.329 -0.211,-3.376 -0.141,-1.062 -0.399,-1.89 -0.774,-2.484 -0.39,-0.656 -0.953,-1.14 -1.687,-1.453 -0.735,-0.328 -1.688,-0.492 -2.86,-0.492 -1.203,0 -2.461,0.297 -3.773,0.89 -1.313,0.594 -2.57,1.352 -3.774,2.274 v 19.547 h -4.406 v -26.18 h 4.406 v 2.906 c 1.375,-1.14 2.797,-2.031 4.266,-2.672 1.469,-0.64 2.977,-0.96 4.523,-0.96 2.829,0 4.985,0.851 6.469,2.554 1.485,1.703 2.227,4.156 2.227,7.36 z m 27.187,-7.547 c 0,2.391 -0.992,4.351 -2.976,5.883 -1.969,1.531 -4.664,2.297 -8.086,2.297 -1.938,0 -3.719,-0.227 -5.344,-0.68 -1.609,-0.469 -2.961,-0.977 -4.055,-1.524 v -4.945 h 0.235 c 1.39,1.047 2.937,1.883 4.64,2.508 1.703,0.609 3.336,0.914 4.899,0.914 1.937,0 3.453,-0.312 4.547,-0.938 1.093,-0.624 1.64,-1.609 1.64,-2.953 0,-1.031 -0.297,-1.812 -0.89,-2.343 -0.594,-0.532 -1.735,-0.985 -3.422,-1.36 -0.625,-0.14 -1.445,-0.304 -2.461,-0.492 -1,-0.187 -1.914,-0.391 -2.742,-0.609 -2.297,-0.61 -3.93,-1.5 -4.899,-2.672 -0.953,-1.188 -1.429,-2.641 -1.429,-4.36 0,-1.078 0.218,-2.093 0.656,-3.046 0.453,-0.954 1.133,-1.805 2.039,-2.555 0.875,-0.734 1.984,-1.313 3.328,-1.734 1.359,-0.438 2.875,-0.657 4.547,-0.657 1.562,0 3.14,0.196 4.734,0.586 1.61,0.375 2.946,0.836 4.008,1.383 v 4.711 h -0.234 c -1.125,-0.828 -2.492,-1.523 -4.102,-2.086 -1.609,-0.578 -3.187,-0.867 -4.734,-0.867 -1.61,0 -2.969,0.312 -4.078,0.937 -1.11,0.61 -1.664,1.524 -1.664,2.743 0,1.078 0.336,1.89 1.007,2.437 0.657,0.547 1.719,0.992 3.188,1.336 0.812,0.187 1.719,0.375 2.719,0.562 1.015,0.188 1.859,0.36 2.531,0.516 2.047,0.469 3.625,1.273 4.734,2.414 1.11,1.156 1.664,2.688 1.664,4.594 z m 19.899,7.312 c -0.828,0.219 -1.735,0.399 -2.719,0.539 -0.969,0.141 -1.836,0.211 -2.602,0.211 -2.671,0 -4.703,-0.718 -6.093,-2.156 -1.391,-1.437 -2.086,-3.742 -2.086,-6.914 v -13.922 h -2.977 v -3.703 h 2.977 v -7.523 H 1312 v 7.523 h 9.094 v 3.703 H 1312 v 11.93 c 0,1.375 0.031,2.453 0.094,3.234 0.062,0.766 0.281,1.485 0.656,2.157 0.344,0.624 0.812,1.085 1.406,1.382 0.61,0.282 1.532,0.422 2.766,0.422 0.719,0 1.469,-0.101 2.25,-0.304 0.781,-0.219 1.344,-0.399 1.687,-0.54 h 0.235 z m 21.656,-21.14 h -0.234 c -0.657,-0.157 -1.297,-0.266 -1.922,-0.328 -0.61,-0.079 -1.336,-0.118 -2.18,-0.118 -1.359,0 -2.672,0.305 -3.937,0.915 -1.266,0.593 -2.485,1.367 -3.657,2.32 v 18.586 h -4.406 v -26.18 h 4.406 v 3.867 c 1.75,-1.406 3.289,-2.398 4.618,-2.976 1.343,-0.594 2.71,-0.891 4.101,-0.891 0.766,0 1.32,0.024 1.664,0.07 0.344,0.032 0.859,0.102 1.547,0.211 z m 25.852,21.375 h -4.407 v -2.906 c -1.484,1.171 -2.906,2.07 -4.265,2.695 -1.36,0.625 -2.86,0.937 -4.5,0.937 -2.75,0 -4.891,-0.836 -6.422,-2.508 -1.531,-1.687 -2.297,-4.156 -2.297,-7.406 v -16.992 h 4.406 v 14.906 c 0,1.328 0.063,2.469 0.188,3.422 0.125,0.938 0.39,1.742 0.797,2.414 0.421,0.688 0.968,1.188 1.64,1.5 0.672,0.313 1.649,0.469 2.93,0.469 1.14,0 2.383,-0.297 3.726,-0.891 1.36,-0.593 2.625,-1.351 3.797,-2.273 v -19.547 h 4.407 z m 28.031,-1.641 c -1.469,0.703 -2.867,1.25 -4.195,1.641 -1.313,0.39 -2.711,0.586 -4.196,0.586 -1.89,0 -3.625,-0.274 -5.203,-0.821 -1.578,-0.562 -2.93,-1.406 -4.055,-2.531 -1.14,-1.125 -2.023,-2.547 -2.648,-4.266 -0.625,-1.718 -0.938,-3.726 -0.938,-6.023 0,-4.281 1.172,-7.641 3.516,-10.078 2.359,-2.438 5.469,-3.656 9.328,-3.656 1.5,0 2.969,0.211 4.406,0.633 1.454,0.421 2.782,0.937 3.985,1.546 v 4.899 h -0.235 c -1.343,-1.047 -2.734,-1.852 -4.171,-2.414 -1.422,-0.563 -2.813,-0.844 -4.172,-0.844 -2.5,0 -4.477,0.844 -5.93,2.531 -1.437,1.672 -2.156,4.133 -2.156,7.383 0,3.156 0.703,5.586 2.109,7.289 1.422,1.688 3.414,2.531 5.977,2.531 0.89,0 1.797,-0.117 2.718,-0.351 0.922,-0.235 1.75,-0.539 2.485,-0.914 0.64,-0.328 1.242,-0.672 1.804,-1.032 0.563,-0.374 1.008,-0.695 1.336,-0.96 h 0.235 z m 19.242,1.406 c -0.828,0.219 -1.734,0.399 -2.719,0.539 -0.968,0.141 -1.836,0.211 -2.601,0.211 -2.672,0 -4.703,-0.718 -6.094,-2.156 -1.391,-1.437 -2.086,-3.742 -2.086,-6.914 v -13.922 h -2.977 v -3.703 h 2.977 v -7.523 h 4.406 v 7.523 h 9.094 v 3.703 h -9.094 v 11.93 c 0,1.375 0.031,2.453 0.094,3.234 0.063,0.766 0.281,1.485 0.656,2.157 0.344,0.624 0.813,1.085 1.407,1.382 0.609,0.282 1.531,0.422 2.765,0.422 0.719,0 1.469,-0.101 2.25,-0.304 0.781,-0.219 1.344,-0.399 1.688,-0.54 h 0.234 z m 10.055,-30.328 h -4.969 v -4.57 h 4.969 z m -0.282,30.563 h -4.406 v -26.18 h 4.406 z m 31.032,-13.078 c 0,4.265 -1.094,7.632 -3.282,10.101 -2.187,2.469 -5.117,3.703 -8.789,3.703 -3.703,0 -6.648,-1.234 -8.836,-3.703 -2.171,-2.469 -3.257,-5.836 -3.257,-10.101 0,-4.266 1.086,-7.633 3.257,-10.102 2.188,-2.484 5.133,-3.726 8.836,-3.726 3.672,0 6.602,1.242 8.789,3.726 2.188,2.469 3.282,5.836 3.282,10.102 z m -4.547,0 c 0,-3.391 -0.664,-5.907 -1.992,-7.547 -1.329,-1.657 -3.172,-2.485 -5.532,-2.485 -2.39,0 -4.25,0.828 -5.578,2.485 -1.312,1.64 -1.969,4.156 -1.969,7.547 0,3.281 0.665,5.773 1.993,7.476 1.328,1.688 3.179,2.531 5.554,2.531 2.344,0 4.18,-0.835 5.508,-2.507 1.344,-1.688 2.016,-4.188 2.016,-7.5 z m 33.258,13.078 h -4.407 v -14.906 c 0,-1.204 -0.07,-2.329 -0.211,-3.376 -0.14,-1.062 -0.398,-1.89 -0.773,-2.484 -0.391,-0.656 -0.953,-1.14 -1.688,-1.453 -0.734,-0.328 -1.687,-0.492 -2.859,-0.492 -1.203,0 -2.461,0.297 -3.773,0.89 -1.313,0.594 -2.571,1.352 -3.774,2.274 v 19.547 h -4.406 v -26.18 h 4.406 v 2.906 c 1.375,-1.14 2.797,-2.031 4.266,-2.672 1.469,-0.64 2.976,-0.96 4.523,-0.96 2.828,0 4.985,0.851 6.469,2.554 1.484,1.703 2.227,4.156 2.227,7.36 z"
       style="fill:#000000;fill-opacity:1;fill-rule:nonzero;stroke:none"
       transform="scale(1.3333333)" />
  </g>
</svg>
